<?xml version="1.0" encoding="UTF-8" standalone="no"?>
<!-- Created with Inkscape (http://www.inkscape.org/) -->

<svg
   width="92.948143mm"
   height="159.4639mm"
   viewBox="0 0 92.948143 159.4639"
   version="1.1"
   id="svg1"
   xml:space="preserve"
   xmlns:inkscape="http://www.inkscape.org/namespaces/inkscape"
   xmlns:sodipodi="http://sodipodi.sourceforge.net/DTD/sodipodi-0.dtd"
   xmlns="http://www.w3.org/2000/svg"
   xmlns:svg="http://www.w3.org/2000/svg"><sodipodi:namedview
     id="namedview1"
     pagecolor="#ffffff"
     bordercolor="#000000"
     borderopacity="0.25"
     inkscape:showpageshadow="2"
     inkscape:pageopacity="0.0"
     inkscape:pagecheckerboard="0"
     inkscape:deskcolor="#d1d1d1"
     inkscape:document-units="mm"><inkscape:page
       x="0"
       y="0"
       width="92.948143"
       height="159.4639"
       id="page2"
       margin="0"
       bleed="0" /></sodipodi:namedview><defs
     id="defs1"><clipPath
       clipPathUnits="userSpaceOnUse"
       id="clipPath2"><path
         style="fill:none;stroke:#000000;stroke-width:0.264999"
         d="m 124.80569,243.04265 h 104.16113 l 0.46919,-167.502367 -105.09952,2e-6 z"
         id="path3"
         sodipodi:nodetypes="ccccc" /></clipPath></defs><g
     inkscape:label="Capa 1"
     inkscape:groupmode="layer"
     id="layer1"
     transform="translate(-102.23668,-52.441194)"><path
       style="fill:#000000"
       d="m 308.33479,241.61203 -0.66146,-0.33457 -0.13229,-16.52872 c -0.0936,-11.68969 -0.22195,-16.72793 -0.43854,-17.20915 -0.28816,-0.64027 -0.66305,-0.75479 -6.35,-1.93985 -5.46908,-1.13966 -12.2152,-2.57967 -13.80338,-2.94644 l -0.61589,-0.14223 0.15929,5.89718 c 0.0876,3.24345 0.22182,6.6875 0.29825,7.65345 l 0.13897,1.75626 -0.91376,0.56474 c -0.77263,0.47751 -1.01905,0.51675 -1.59551,0.2541 -0.37497,-0.17084 -0.74018,-0.50092 -0.81158,-0.7335 -0.0714,-0.23257 -0.25312,-3.92611 -0.4038,-8.20786 -0.15068,-4.28175 -0.30291,-7.80895 -0.33828,-7.83823 -0.0604,-0.05 -2.88044,-0.67004 -10.84903,-2.38539 -1.85701,-0.39974 -3.42323,-0.67853 -3.48048,-0.61951 -0.0573,0.059 0.01,2.07182 0.1487,4.47292 0.32734,5.65261 0.94994,24.91086 0.81824,25.30963 -0.0557,0.16857 -0.45839,0.45445 -0.89493,0.63527 -0.66015,0.27344 -0.94011,0.25895 -1.6637,-0.0861 l -0.86999,-0.41487 -0.17946,-5.37977 c -0.0987,-2.95888 -0.23462,-6.15368 -0.30204,-7.09957 -0.0674,-0.94588 -0.24614,-4.04151 -0.39714,-6.87917 -0.151,-2.83765 -0.44434,-7.95734 -0.65187,-11.37708 -0.20752,-3.41974 -0.37867,-8.22906 -0.38033,-10.68738 -0.002,-2.45832 -0.0746,-4.54192 -0.16218,-4.63021 -0.0875,-0.0883 -0.894,-0.35072 -1.79213,-0.58316 -0.89813,-0.23244 -1.83598,-0.51102 -2.08411,-0.61906 -0.41421,-0.18036 -0.40863,-0.0483 0.0682,1.61325 0.45289,1.57803 0.94907,4.01879 1.47052,7.23364 0.0826,0.50933 0.0691,0.84563 -0.0301,0.74734 -0.0991,-0.0983 -0.46423,-1.6461 -0.81131,-3.43958 -0.73081,-3.77642 -1.3848,-6.30298 -1.74683,-6.74856 -0.13973,-0.17197 -1.40943,-0.96686 -2.82157,-1.76642 -1.41213,-0.79956 -3.97648,-2.2908 -5.69855,-3.31387 -3.44368,-2.04588 -3.91214,-2.233 -6.7142,-2.68191 l -1.91823,-0.30731 v -0.98568 -0.98569 l 8.13593,-1.92479 c 4.47477,-1.05864 9.68375,-2.32465 11.57553,-2.81336 1.89177,-0.48871 4.84417,-1.19954 6.56089,-1.5796 l 3.12131,-0.69104 3.75786,0.4274 c 2.06682,0.23507 4.93138,0.57622 6.36569,0.75811 1.80632,0.22907 2.63319,0.24495 2.69033,0.0517 0.0454,-0.15346 0.14337,-1.61626 0.21778,-3.25067 0.0744,-1.63441 0.22033,-3.10925 0.32427,-3.27743 0.13069,-0.21146 0.80972,-0.25675 2.20147,-0.14682 1.10686,0.0874 6.65592,0.51805 12.33123,0.95694 5.67531,0.43889 10.84146,0.84719 11.48032,0.90734 l 1.16158,0.10936 -0.14724,-35.65226 -0.14724,-35.652244 -1.09781,-2.183444 c -0.6038,-1.200895 -1.03661,-2.342944 -0.96181,-2.537886 0.40538,-1.056389 5.34883,-2.135454 8.56636,-1.86988 2.26687,0.187107 4.18112,0.632606 4.53131,1.054566 0.16543,0.199324 -0.13882,1.224642 -0.89629,3.020527 l -1.14672,2.718772 -0.19376,35.824379 -0.19377,35.82439 0.89962,0.13558 c 1.20396,0.18144 6.44281,0.66137 9.23399,0.84592 3.35329,0.22172 3.39282,0.23783 4.03595,1.64536 0.47184,1.03267 0.57016,1.73995 0.56878,4.09161 -0.001,2.33949 0.071,2.86543 0.40878,2.96906 0.22574,0.0693 2.19639,0.30438 4.3792,0.52249 2.18281,0.2181 5.45703,0.57147 7.27604,0.78527 1.81901,0.21379 4.52768,0.47246 6.01927,0.57481 l 2.71198,0.1861 v 1.0078 c 0,1.19194 0.27908,0.97722 -7.54062,5.80161 -13.34673,8.2343 -12.3351,7.66604 -13.64806,7.66655 -0.66696,2.6e-4 -1.86432,0.13135 -2.66082,0.29131 l -1.44817,0.29083 -0.31926,6.12531 c -0.17559,3.36892 -0.50757,11.77997 -0.73774,18.69121 -0.23017,6.91124 -0.52968,12.77367 -0.66559,13.02761 -0.32407,0.60554 -1.34728,0.84654 -2.27099,0.53489 l -0.73896,-0.24932 0.0587,-5.13433 c 0.0323,-2.82388 0.17217,-9.18146 0.31088,-14.12796 0.13872,-4.9465 0.20614,-9.03971 0.14983,-9.09602 -0.10275,-0.10274 -0.43726,0.0985 -5.81105,3.49635 -7.55462,4.77676 -7.46651,4.70106 -7.89938,6.78809 -0.0755,0.36381 -0.21381,7.92427 -0.30745,16.80105 l -0.17024,16.13958 -0.70626,0.594 c -0.78683,0.66177 -1.95143,0.76197 -2.95521,0.25426 z m -2.58666,-36.76545 c -0.38223,-0.9095 -0.72557,-1.69832 -0.76298,-1.75292 -0.0944,-0.13775 -4.5954,-1.04052 -15.36547,-3.08186 -5.05914,-0.9589 -11.64389,-2.213 -14.63278,-2.78689 -2.98889,-0.57389 -5.66779,-1.04268 -5.95312,-1.04176 -0.57251,0.002 -1.60152,1.53659 -1.25786,1.87606 0.11545,0.11404 5.62726,1.34979 12.24846,2.74612 10.85602,2.2894 26.25443,5.59872 26.37238,5.66777 0.0255,0.0149 -0.2664,-0.71701 -0.64863,-1.62652 z m 8.7794,-0.55632 c 0.45029,-0.34235 3.55716,-2.32015 6.90414,-4.39511 3.34698,-2.07495 6.17744,-3.85735 6.28992,-3.96089 0.20557,-0.18924 -0.48176,-2.13403 -0.75421,-2.13403 -0.0802,0 -2.37051,1.35271 -5.08968,3.00603 -2.71917,1.65331 -5.50944,3.33147 -6.2006,3.72923 -0.69116,0.39777 -1.32953,0.84113 -1.4186,0.98525 -0.22954,0.3714 -0.83359,3.39199 -0.67832,3.39199 0.0707,0 0.49705,-0.28011 0.94735,-0.62247 z m -9.63232,-2.43096 c 0,-0.87679 0.85254,-2.00401 2.60986,-3.45073 0.95213,-0.78384 1.67108,-1.16876 2.18303,-1.16876 h 0.76336 v -6.86296 -6.86295 l -1.25677,-0.16295 c -0.69123,-0.0896 -1.52466,-0.21825 -1.85209,-0.28583 -0.46091,-0.0951 -0.59531,-0.003 -0.59531,0.40976 0,0.42351 -0.87598,0.97128 -4.27518,2.67339 l -4.27518,2.14073 -7.30034,-1.21532 c -4.01519,-0.66843 -7.47893,-1.21446 -7.69721,-1.21341 -0.34153,0.002 -0.38475,0.68267 -0.30991,4.88317 l 0.087,4.88125 -1.93906,0.98798 -1.93905,0.98799 5.95313,1.15102 c 3.27422,0.63307 8.87015,1.72988 12.43541,2.43736 3.56527,0.70748 6.69066,1.29896 6.94532,1.31438 0.32683,0.0198 0.46302,-0.16965 0.46302,-0.64412 z m 15.01316,-4.26265 c 3.02063,-1.84102 5.81872,-3.53766 6.21798,-3.77031 0.58502,-0.34088 0.72625,-0.61411 0.7276,-1.40763 9.2e-4,-0.54156 0.30087,-1.66119 0.66656,-2.48807 0.36569,-0.82688 0.62976,-1.53854 0.58684,-1.58147 -0.0429,-0.0429 -1.14579,0.15641 -2.45082,0.44295 -4.51171,0.99063 -14.66943,3.15602 -14.80471,3.15602 -0.0747,0 -0.13578,1.23901 -0.13578,2.75336 0,2.60193 0.0285,2.74591 0.51724,2.61809 0.63078,-0.16495 2.24208,1.47647 2.71375,2.76449 0.1732,0.47294 0.34964,0.8599 0.3921,0.8599 0.0425,0 2.54862,-1.5063 5.56924,-3.34733 z m -41.37265,-0.27929 c 0.10287,-0.10288 -1.75252,-0.55971 -4.12309,-1.01519 -5.18731,-0.99668 -6.55909,-1.19168 -6.55909,-0.93237 0,0.10796 2.29196,0.61756 5.09323,1.13244 2.80128,0.51488 5.16268,0.95099 5.24757,0.96915 0.0849,0.0181 0.23851,-0.0512 0.34138,-0.15403 z m 2.54635,-1.13556 c 1.21748,-0.61458 1.53337,-0.89351 1.4014,-1.23743 -0.159,-0.41434 -0.18087,-0.41409 -0.32747,0.004 -0.0864,0.2463 -0.86925,0.79401 -1.73967,1.21714 -0.87042,0.42312 -1.43036,0.77844 -1.24431,0.7896 0.18606,0.0112 1.04558,-0.33676 1.91005,-0.77314 z m -2.01816,-0.009 c 0.28986,-0.26906 -0.85768,-0.59653 -5.55605,-1.58549 -3.59672,-0.75707 -3.77719,-0.77042 -4.7625,-0.35235 -0.56326,0.23899 -0.89637,0.47993 -0.74025,0.53543 0.15612,0.0555 2.41831,0.50069 5.02708,0.98933 4.49495,0.84194 5.49588,0.91049 6.03172,0.41308 z m 1.36822,-0.53822 c 0.0959,-0.15521 0.11999,-0.3366 0.0535,-0.40311 -0.18454,-0.18454 -0.9904,0.18081 -0.9904,0.44902 0,0.3312 0.72583,0.29563 0.93692,-0.0459 z m -1.56531,-1.07381 c -0.0909,-0.45475 -0.16536,-2.4044 -0.16536,-4.33255 v -3.50573 h -0.63778 -0.63779 l 0.14721,4.13412 c 0.14484,4.06787 0.25364,4.51756 1.09529,4.52694 0.26672,0.003 0.31967,-0.21658 0.19843,-0.82278 z m 2.74506,0.56224 c 0,-0.14552 -0.11204,-0.26458 -0.24897,-0.26458 -0.13694,0 -0.32256,0.11906 -0.41249,0.26458 -0.0899,0.14552 0.0221,0.26459 0.24897,0.26459 0.22686,0 0.41249,-0.11907 0.41249,-0.26459 z m -1.63917,-3.32888 c 0.0847,-3.31203 -0.0954,-5.40237 -0.46541,-5.40237 -0.44064,0 -0.50062,0.81386 -0.34959,4.74351 0.10483,2.72772 0.24646,3.97414 0.44414,3.90856 0.18273,-0.0606 0.3201,-1.26438 0.37086,-3.2497 z m -2.72759,-1.23758 -0.18976,-4.30188 0.95534,-0.34545 c 0.52544,-0.19 0.95534,-0.45681 0.95534,-0.59292 0,-0.1361 -0.0467,-0.24745 -0.10375,-0.24745 -0.0571,0 -2.21303,-0.35719 -4.79104,-0.79375 -2.57801,-0.43657 -4.80508,-0.79375 -4.94904,-0.79375 -0.25472,0 -0.0758,7.73801 0.21471,9.28779 0.12257,0.65379 0.30012,0.72314 3.49007,1.36307 1.84851,0.37082 3.64149,0.68592 3.98441,0.70022 l 0.62347,0.026 z m -3.30616,2.4498 c 0,-0.34102 0.13399,-0.5286 0.33073,-0.46302 0.1819,0.0606 0.33073,0.26899 0.33073,0.46302 0,0.19402 -0.14883,0.40238 -0.33073,0.46302 -0.19674,0.0656 -0.33073,-0.122 -0.33073,-0.46302 z m 0.11111,-2.46452 c 0.17895,-1.19336 -0.1342,-1.72613 -1.247,-2.12155 -0.38492,-0.13678 -0.4206,-0.26916 -0.18913,-0.70167 0.36258,-0.6775 0.79585,-0.68814 0.79585,-0.0195 0,0.28246 0.11906,0.58714 0.26459,0.67708 0.15436,0.0954 0.26458,-0.17364 0.26458,-0.64585 0,-1.08925 0.52465,-1.04069 0.54594,0.0505 0.0152,0.7805 0.0389,0.80493 0.25605,0.26458 0.13161,-0.32742 0.36219,-0.59531 0.5124,-0.59531 0.50122,0 0.28094,1.02284 -0.30932,1.43627 l -0.58243,0.40795 0.71472,0.74601 c 0.71619,0.74755 0.93039,1.37852 0.46797,1.37852 -0.13572,0 -0.32233,-0.23813 -0.41471,-0.52917 -0.2362,-0.7442 -0.66145,-0.65915 -0.66145,0.13229 0,0.3638 -0.13259,0.66146 -0.29463,0.66146 -0.19737,0 -0.23812,-0.37683 -0.12343,-1.1416 z m -1.42571,0.0171 c 0.0104,-0.41425 1.3146,-1.39357 1.3146,-0.98714 0,0.16188 -0.12325,0.52462 -0.27389,0.8061 -0.3042,0.5684 -1.05373,0.69878 -1.04071,0.18104 z m 2.63752,-1.12448 c 0,-0.22048 0.23518,-0.39687 0.52916,-0.39687 0.29398,0 0.52917,0.17639 0.52917,0.39687 0,0.22049 -0.23519,0.39688 -0.52917,0.39688 -0.29398,0 -0.52916,-0.17639 -0.52916,-0.39688 z m -3.175,-0.12399 c 0,-0.14095 -0.1786,-0.18774 -0.39688,-0.10398 -0.21828,0.0838 -0.39687,0.0275 -0.39687,-0.12498 0,-0.44694 0.33764,-0.51144 1.30575,-0.24941 0.68972,0.18668 0.81732,0.30394 0.52917,0.48628 -0.50098,0.31701 -1.04117,0.31291 -1.04117,-0.008 z m 1.76388,-3.35969 c -0.30443,-0.30444 -0.19268,-0.61736 0.22049,-0.61736 0.21828,0 0.39688,0.17859 0.39688,0.39687 0,0.41317 -0.31293,0.52493 -0.61737,0.22049 z m 8.73663,8.11389 c 0.0963,0 -0.18179,-8.2401 -0.28268,-8.37692 -0.0173,-0.0234 -0.47786,-0.12595 -1.02356,-0.22789 l -0.99219,-0.18533 0.002,3.00601 c 0.001,1.6533 0.0773,3.80429 0.16943,4.77997 l 0.16756,1.77397 0.92121,-0.3849 c 0.50666,-0.2117 0.97392,-0.38491 1.03835,-0.38491 z m -13.83913,-4.43162 c -0.0661,-1.70987 -0.18307,-3.83683 -0.26004,-4.72657 l -0.13993,-1.61771 -1.87057,-0.30892 c -1.02881,-0.1699 -1.91877,-0.26071 -1.97769,-0.2018 -0.0589,0.0589 -0.0254,1.37091 0.0745,2.91555 l 0.18157,2.80844 0.86072,0.50784 c 0.4734,0.27931 1.35336,1.23328 1.95548,2.11993 0.60211,0.88665 1.14005,1.61209 1.19543,1.61209 0.0554,0 0.0466,-1.39898 -0.0194,-3.10885 z m 52.68341,-0.3205 c 9.9085,-2.16181 11.6974,-2.59107 10.9802,-2.63476 -0.21828,-0.0133 -4.91404,-0.67837 -10.43502,-1.47795 -5.52098,-0.79957 -10.31324,-1.45377 -10.64947,-1.45377 h -0.61134 v 3.98658 c 0,3.67194 0.0365,3.97589 0.46302,3.85117 0.25466,-0.0745 4.86834,-1.09655 10.25261,-2.27127 z m -23.41563,-2.10907 c 0,-0.5104 -0.15844,-0.82279 -0.46302,-0.91289 -0.25466,-0.0753 -4.27302,-0.73999 -8.92969,-1.477 -4.65666,-0.73701 -12.51479,-2.01073 -17.4625,-2.83049 -11.3494,-1.88042 -10.9802,-1.83615 -10.9802,-1.31684 0,0.89398 -0.4401,0.80103 20.90208,4.41501 9.24057,1.56476 16.83081,2.85697 16.86719,2.87158 0.0364,0.0146 0.0661,-0.32261 0.0661,-0.74937 z m 8.29857,-3.85219 c -0.25913,-0.67527 -1.02649,-0.46021 -4.45942,1.24977 -3.04554,1.51703 -3.30998,1.7074 -3.30998,2.38291 v 0.73416 l 3.96125,-1.98393 c 2.98581,-1.49539 3.92355,-2.08218 3.80815,-2.38291 z m 29.27226,2.63807 c 0,-0.44057 -0.20217,-0.75296 -0.59531,-0.91986 -0.78365,-0.33267 -23.19313,-3.50594 -23.61516,-3.34399 -0.33379,0.12808 -0.71697,1.48225 -0.42523,1.50277 0.089,0.006 5.34097,0.76966 11.67112,1.69644 6.33016,0.92678 11.8368,1.69556 12.23698,1.70841 0.60755,0.0195 0.7276,-0.0867 0.7276,-0.64377 z m 12.03855,-6.59983 c 7.70449,-4.74174 7.8052,-4.81208 7.8052,-5.45106 0,-0.28113 -0.0468,-0.51115 -0.10397,-0.51115 -0.0572,0 -4.19461,2.45575 -9.19427,5.45722 -4.99967,3.00147 -9.35819,5.58043 -9.68561,5.73101 -0.443,0.20374 -0.59531,0.49874 -0.59531,1.15302 v 0.87922 l 2.71198,-1.67507 c 1.49159,-0.92129 5.56948,-3.43372 9.06198,-5.58319 z m -67.99792,6.47321 c 0.0899,-0.14552 0.0374,-0.26459 -0.11668,-0.26459 -0.15411,0 -0.28019,0.11907 -0.28019,0.26459 0,0.14552 0.0525,0.26458 0.11667,0.26458 0.0642,0 0.19026,-0.11906 0.2802,-0.26458 z m 21.18001,-1.21694 c 1.4323,-0.66932 2.89495,-1.3275 3.25034,-1.46262 0.35539,-0.13511 0.58453,-0.3073 0.50919,-0.38264 -0.0753,-0.0753 -4.40786,-0.77871 -9.62784,-1.56305 -17.60558,-2.64537 -22.07823,-3.32968 -23.39565,-3.57952 -0.77988,-0.1479 -1.55322,-0.15301 -1.90589,-0.0126 -0.32642,0.12997 -1.99271,0.67457 -3.70286,1.21021 -1.71015,0.53565 -3.16459,1.06326 -3.23208,1.17246 -0.14061,0.22751 1.88939,0.57766 20.09978,3.46694 7.27604,1.15443 13.40776,2.14563 13.62604,2.20266 1.08259,0.28285 1.98835,0.0653 4.37897,-1.05186 z m 41.24279,-3.71893 c 11.0983,-6.56878 12.65538,-7.55768 12.27736,-7.79732 -0.19373,-0.12281 -0.76896,-0.22568 -1.27829,-0.22861 -0.50932,-0.003 -4.8551,-0.42584 -9.65729,-0.93982 -4.80218,-0.51398 -9.02033,-0.86301 -9.37366,-0.77563 -0.35332,0.0874 -1.36536,0.49494 -2.24896,0.90567 -0.8836,0.41074 -3.03529,1.4041 -4.78154,2.20748 -5.64934,2.59902 -13.20819,6.16151 -14.02292,6.60902 -0.43656,0.23978 -0.61516,0.44704 -0.39688,0.46057 0.21829,0.0135 5.15938,0.72052 10.98021,1.57108 5.82084,0.85057 10.99157,1.55864 11.49051,1.5735 0.71698,0.0214 2.18703,-0.7305 7.01146,-3.58594 z m -31.33426,1.3694 c 0,-0.46852 -0.18201,-0.66271 -0.7276,-0.77627 -0.67534,-0.14056 -15.97582,-2.40906 -30.49323,-4.52102 -7.11578,-1.03519 -18.23959,-2.69881 -19.51302,-2.91828 -0.78233,-0.13482 -0.8599,-0.0879 -0.8599,0.52021 0,0.47979 0.168,0.70364 0.59531,0.79325 1.52209,0.31918 13.72039,2.20544 31.68386,4.89936 5.89359,0.88384 12.56109,1.88449 14.81666,2.22366 2.25558,0.33917 4.19034,0.5688 4.29948,0.51029 0.10914,-0.0585 0.19844,-0.38755 0.19844,-0.7312 z m 6.36412,-3.74006 c 6.33495,-2.99586 13.44955,-6.31788 14.53796,-6.78823 0.56597,-0.24457 0.26041,-0.33179 -2.11666,-0.60419 -3.03173,-0.34742 -19.55564,-2.1884 -34.4014,-3.83276 l -9.39827,-1.04098 -1.97881,0.54737 c -4.62477,1.27929 -18.65079,5.31431 -18.72264,5.38615 -0.0431,0.0431 0.78619,0.20667 1.84285,0.3635 1.28054,0.19006 1.97591,0.19662 2.08527,0.0197 0.14282,-0.23109 5.38417,-1.85817 15.40921,-4.78351 l 2.85808,-0.83399 7.72525,0.84303 c 4.24889,0.46367 11.17806,1.20232 15.39817,1.64145 13.27325,1.38118 15.7427,1.70909 15.7427,2.09042 0,0.11629 -2.32182,1.24488 -5.15961,2.50797 -9.42208,4.19375 -10.41044,4.69774 -9.65705,4.92434 0.65538,0.19713 0.6558,0.1992 0.0462,0.22533 -0.9039,0.0388 -34.85881,-4.77514 -43.34338,-6.14491 l -3.74193,-0.60411 -2.0789,0.57563 c -1.1434,0.31659 -1.90031,0.63892 -1.68202,0.71628 0.21828,0.0774 2.59953,0.45421 5.29166,0.83744 8.71627,1.24079 45.35949,6.67898 45.39017,6.73631 0.008,0.0145 2.68667,-1.23748 5.95312,-2.78221 z m -4.82623,0.77579 c 0.191,-0.0764 0.4192,-0.067 0.50712,0.0209 0.0879,0.0879 -0.0684,0.15046 -0.34727,0.13897 -0.30822,-0.0127 -0.37091,-0.0754 -0.15985,-0.15985 z m -50.59878,-0.30275 1.96506,-0.57813 v -1.02665 c 0,-1.02371 -0.004,-1.02715 -1.25677,-1.20248 -0.69123,-0.0967 -4.10169,-0.64867 -7.57881,-1.22658 -3.47713,-0.57791 -6.37338,-0.99941 -6.43613,-0.93666 -0.0627,0.0627 0.69858,0.56209 1.69184,1.10966 0.99325,0.54757 3.47279,1.97827 5.51008,3.17933 3.25286,1.91768 3.73069,2.12744 3.92192,1.72169 0.13205,-0.28019 0.99118,-0.6896 2.18281,-1.04018 z m 3.94943,-0.42278 c 4.24821,-1.48587 3.48667,-1.59529 -1.05833,-0.15207 -1.8331,0.58209 -3.50573,1.05834 -3.71697,1.05834 -0.21124,0 -0.38407,0.13208 -0.38407,0.29353 0,0.44863 1.33199,0.13888 5.15937,-1.1998 z m 44.51974,-0.12858 c 0.25269,-0.13261 3.76226,-1.70142 7.79905,-3.48625 4.03679,-1.78483 7.28552,-3.29925 7.2194,-3.36537 -0.19306,-0.19306 -2.70363,0.84882 -11.63468,4.82837 l -3.95483,1.76222 -5.04101,-0.70223 c -2.77255,-0.38623 -11.6967,-1.64247 -19.83144,-2.79164 -8.13474,-1.14918 -14.91535,-2.08942 -15.06802,-2.08942 -0.17401,0 -0.1838,0.0876 -0.0262,0.23476 0.13825,0.12912 4.29948,0.79964 9.24719,1.49005 4.94771,0.69041 13.75833,1.94221 19.57917,2.78178 12.31547,1.77632 11.13301,1.64125 11.7114,1.33773 z m -43.26297,-1.07896 c 0.10915,-0.002 0.19844,-0.11336 0.19844,-0.24841 0,-0.2743 -2.84787,-0.69894 -3.08658,-0.46023 -0.0836,0.0836 -0.0774,0.44924 0.0138,0.81257 0.16533,0.65871 0.1694,0.65951 1.42084,0.27977 0.69027,-0.20946 1.34433,-0.38212 1.45347,-0.3837 z m 49.98531,-2.83489 c 3.89341,-1.70314 7.03929,-3.13626 6.99083,-3.18471 -0.0832,-0.0832 -10.98579,-1.2814 -22.38187,-2.45979 -2.83765,-0.29342 -7.21167,-0.76229 -9.72004,-1.04192 l -4.56066,-0.50844 -5.36121,1.59506 c -11.87371,3.53264 -11.28154,3.33025 -10.256,3.50525 1.5479,0.26414 11.40831,1.65537 23.54791,3.32245 6.33016,0.86929 11.80704,1.62916 12.17084,1.68859 1.98433,0.32417 2.56993,0.14571 9.5702,-2.91649 z m -24.16328,-0.47357 c -3.56366,-0.59987 -4.98609,-1.25788 -4.98609,-2.30654 0,-1.73095 9.02507,-2.89508 15.88194,-2.04858 3.00715,0.37124 4.07946,0.68055 4.9473,1.42703 0.72313,0.62201 0.72502,0.63214 0.22176,1.18824 -1.5004,1.65792 -10.65906,2.64982 -16.06491,1.73985 z m 11.15349,-0.42787 c 2.13995,-0.31384 4.09256,-0.93747 4.50996,-1.44041 0.88347,-1.06452 -1.53937,-1.8628 -6.95091,-2.2902 -5.70823,-0.45083 -11.76521,0.27679 -13.05694,1.56852 -0.41194,0.41194 -0.40188,0.47313 0.15148,0.92121 1.90239,1.54046 9.2517,2.13471 15.34641,1.24088 z m -9.10141,-0.50952 c -2.76973,-0.4361 -3.62056,-1.51559 -1.81265,-2.29981 1.29305,-0.5609 7.29618,-0.78534 9.38833,-0.35101 2.57533,0.53464 2.73013,1.67964 0.31374,2.32057 -1.73205,0.45941 -5.94816,0.6359 -7.88942,0.33025 z m 5.39725,-0.23257 c 2.46668,-0.3226 3.96875,-0.77777 3.96875,-1.20266 0,-0.74087 -1.86655,-1.06866 -6.08542,-1.06866 -3.42912,0 -4.24193,0.077 -4.96094,0.46982 -0.47294,0.2584 -0.85989,0.52354 -0.85989,0.58921 0,0.35415 1.49514,1.00841 2.70911,1.18547 1.93269,0.2819 3.22714,0.28854 5.22839,0.0268 z m -1.32292,-1.10103 c 0.49878,-0.17507 0.32202,-0.21088 -0.71868,-0.14561 -0.75908,0.0476 -1.3176,-0.0146 -1.24116,-0.13833 0.0764,-0.12369 0.72727,-0.22489 1.44629,-0.22489 0.98566,0 1.3073,0.0976 1.3073,0.39688 0,0.26296 -0.24551,0.38797 -0.7276,0.3705 l -0.72761,-0.0264 z m -39.95208,2.82715 c 0,-0.774 0.38825,-0.67538 -7.40833,-1.88171 -3.41974,-0.52911 -6.69396,-1.06987 -7.27605,-1.20168 -1.62633,-0.36827 -1.98437,-0.31687 -1.98437,0.28488 0,0.29561 0.16358,0.60025 0.36351,0.67697 0.3979,0.15268 15.09272,2.68185 15.84222,2.72664 0.31961,0.0191 0.46302,-0.16831 0.46302,-0.6051 z m 4.14744,-2.2571 c 1.86625,-0.57079 7.02459,-2.06495 11.46298,-3.32037 10.0668,-2.84743 9.89024,-2.79077 9.59983,-3.08117 -0.22207,-0.22207 -1.48069,-0.40161 -9.68933,-1.38216 l -3.13221,-0.37415 -4.80529,1.16252 c -4.51171,1.0915 -19.94094,4.78209 -22.2678,5.32635 -0.97555,0.22818 -1.00659,0.26151 -0.39687,0.42612 1.20299,0.32477 13.60461,2.2192 14.73077,2.25022 0.61458,0.0169 2.61024,-0.43002 4.49792,-1.00736 z m 69.24933,-2.20336 c 0.0721,-0.47294 0.20184,-2.36872 0.28823,-4.21283 l 0.15708,-3.35295 -1.40073,-0.16004 c -1.87897,-0.21468 -21.59878,-1.84423 -30.50489,-2.52077 -3.92907,-0.29846 -9.04267,-0.7197 -11.36357,-0.93609 -2.32089,-0.21638 -4.30492,-0.30399 -4.40894,-0.19469 -0.10402,0.1093 -0.27421,1.77631 -0.3782,3.70446 l -0.18908,3.50573 h 1.11796 c 0.61487,0 5.48195,0.47938 10.81572,1.06529 5.33378,0.58592 15.11512,1.659 21.73631,2.38462 6.6212,0.72562 12.21714,1.36352 12.43542,1.41755 1.22555,0.30335 1.56286,0.16396 1.69469,-0.70028 z m 1.44083,0.56943 0.83323,-0.29046 -0.012,-2.81839 c -0.0104,-2.44091 -0.096,-2.97785 -0.63964,-4.00901 -0.41485,-0.78691 -0.67289,-1.05605 -0.761,-0.79375 -0.16875,0.50236 -0.50914,8.20208 -0.3626,8.20208 0.0598,0 0.48369,-0.13071 0.94197,-0.29047 z m -13.98366,-10.4913 -2.2e-4,-0.72761 h -3.70408 c -3.28412,0 -3.70406,0.0501 -3.70394,0.44197 1e-4,0.35267 0.36092,0.4758 1.78607,0.60946 0.98226,0.0921 2.02406,0.20445 2.3151,0.24961 0.29104,0.0452 1.15425,0.0983 1.91823,0.11814 1.34774,0.035 1.38906,0.0144 1.38884,-0.69157 z m -4.69613,-1.03513 c -0.1819,-0.0734 -0.47956,-0.0734 -0.66146,0 -0.1819,0.0734 -0.0331,0.13346 0.33073,0.13346 0.3638,0 0.51263,-0.0601 0.33073,-0.13346 z m 3.175,0 c -0.1819,-0.0734 -0.47956,-0.0734 -0.66146,0 -0.1819,0.0734 -0.0331,0.13346 0.33073,0.13346 0.3638,0 0.51263,-0.0601 0.33073,-0.13346 z m 0.94166,-0.36888 c -0.59396,-0.14314 -0.59554,-0.15134 -0.0569,-0.29517 0.54934,-0.14668 0.55555,-0.25481 0.72785,-12.68506 0.2131,-15.37394 0.28782,-50.364629 0.1082,-50.675237 -0.072,-0.124552 -0.0832,-0.464583 -0.0248,-0.755624 0.0584,-0.291042 0.17879,-1.448469 0.2676,-2.572061 0.16104,-2.037517 0.15958,-2.043611 -0.5545,-2.315104 -0.9537,-0.362599 -4.1953,-0.345856 -6.07365,0.03137 l -1.51164,0.30358 0.0449,2.606837 c 0.0247,1.43376 0.06,2.601791 0.0785,2.595626 0.0184,-0.0062 0.68838,-0.184825 1.48874,-0.397021 l 1.45521,-0.385811 -1.32291,0.117613 c -1.06066,0.0943 -1.19353,0.06558 -0.67021,-0.144855 0.99846,-0.401494 4.50966,-0.577576 5.69729,-0.285711 l 1.05833,0.26009 -0.92604,0.06141 -0.92604,0.06141 0.92604,0.17447 c 0.55798,0.105126 -0.17813,0.177051 -1.85208,0.180965 -1.52797,0.0036 -3.29356,0.154639 -3.92354,0.335703 l -1.14542,0.329207 0.11609,31.271143 c 0.097,26.13365 0.18033,32.32948 0.43471,32.32948 0.0111,0 1.63461,0 3.60773,0 1.97312,0 3.31257,-0.0663 2.97656,-0.14724 z M 312.76656,158.7 c 0.1819,-0.0734 0.47956,-0.0734 0.66146,0 0.1819,0.0734 0.0331,0.13345 -0.33073,0.13345 -0.3638,0 -0.51263,-0.06 -0.33073,-0.13345 z m 4.36563,-64.569828 c -0.32742,-0.06306 -0.86321,-0.06306 -1.19063,0 -0.32742,0.06306 -0.0595,0.114662 0.59531,0.114662 0.65485,0 0.92274,-0.0516 0.59532,-0.114662 z m -3.77032,-4.957883 c 0,-0.181215 -2.18694,-5.073742 -2.33443,-5.222476 -0.0985,-0.09934 -0.40559,-0.01344 -0.68239,0.190902 -0.48688,0.359417 -0.47082,0.442923 0.49276,2.561875 1.20557,2.65109 1.34352,2.834227 2.00463,2.661342 0.28569,-0.07471 0.51943,-0.160949 0.51943,-0.191643 z m 8.04985,-2.844061 c 0.52029,-1.26507 0.94599,-2.357165 0.94599,-2.426877 0,-0.06971 -0.44649,-0.284811 -0.99219,-0.477998 -1.22072,-0.432151 -8.10223,-0.490791 -8.52041,-0.07261 -0.19514,0.195134 -0.049,0.948435 0.48767,2.513542 1.2045,3.512843 0.97524,3.234312 2.51467,3.055187 0.74298,-0.08645 1.9462,-0.05867 2.6738,0.06175 0.87463,0.144747 1.42823,0.122054 1.6337,-0.06697 0.17093,-0.157247 0.73647,-1.32096 1.25677,-2.58603 z m -8.26788,-0.0792 c -0.53492,-1.526912 -1.12142,-2.777068 -1.30332,-2.778125 -0.46027,-0.0027 -0.43341,0.140351 0.46377,2.470294 0.95271,2.474167 1.26446,3.084034 1.57646,3.084034 0.12963,0 -0.20199,-1.249291 -0.73691,-2.776203 z m -122.78267,150.867932 -0.8955,-0.32194 0.0551,-6.74688 c 0.0303,-3.71078 0.1482,-10.49734 0.26199,-15.08125 0.21532,-8.6745 0.14767,-9.44316 -0.90822,-10.31948 -0.34206,-0.28388 -3.40009,-0.77019 -15.08037,-2.39819 -3.20146,-0.44622 -6.27906,-0.88016 -6.83912,-0.96432 l -1.01829,-0.15302 0.15839,3.47792 c 0.51314,11.26723 0.52037,10.2597 -0.078,10.85802 -0.42003,0.42003 -0.74651,0.50897 -1.41179,0.38462 -0.47597,-0.089 -0.9476,-0.23532 -1.04805,-0.32522 -0.10046,-0.0899 -0.3216,-3.43767 -0.49144,-7.43949 -0.16983,-4.00183 -0.33576,-7.30589 -0.36873,-7.34236 -0.033,-0.0365 -1.53824,-0.30465 -3.34503,-0.59595 -1.80679,-0.2913 -4.44336,-0.71656 -5.85904,-0.94503 -1.41568,-0.22846 -2.68738,-0.34529 -2.82599,-0.25962 -0.13861,0.0857 -0.32801,0.0328 -0.42088,-0.11746 -0.0929,-0.15027 -0.28163,-0.20351 -0.41947,-0.11833 -0.13784,0.0852 -0.19475,0.24529 -0.12647,0.35576 0.0683,0.11048 0.24801,5.84702 0.3994,12.74787 0.15139,6.90085 0.33869,13.10501 0.41623,13.78703 0.11893,1.04614 0.0494,1.32541 -0.44498,1.78594 -0.66013,0.61501 -1.22378,0.68068 -2.16424,0.25218 -0.63757,-0.2905 -0.64674,-0.34634 -0.83615,-5.09323 -0.10533,-2.63973 -0.22714,-5.39482 -0.27069,-6.12243 -0.0435,-0.7276 -0.20911,-4.59713 -0.36792,-8.59896 -0.15881,-4.00182 -0.35147,-7.65367 -0.42814,-8.11522 -0.0767,-0.46154 -0.18893,-5.62449 -0.24948,-11.47321 -0.0605,-5.84872 -0.14867,-10.67264 -0.19584,-10.71981 -0.0472,-0.0472 -2.10735,-0.30432 -4.57817,-0.57145 l -4.49242,-0.48569 v -1.02292 c 0,-0.98851 0.0401,-1.03371 1.19062,-1.3433 0.65485,-0.1762 4.22673,-1.27638 7.93751,-2.44484 3.71079,-1.16846 8.30378,-2.57161 10.20666,-3.11812 l 3.45978,-0.99364 -0.11347,-3.9006 c -0.08,-2.75068 -0.0243,-3.9557 0.18896,-4.08752 0.16634,-0.1028 2.53003,-0.0549 5.25265,0.10633 2.72262,0.16128 7.03381,0.41244 9.58042,0.55812 2.54662,0.14569 5.45302,0.33866 6.45868,0.42884 l 1.82847,0.16395 -0.16914,-3.01494 c -0.093,-1.65821 -0.28858,-4.86041 -0.43458,-7.11598 -0.146,-2.25557 -0.38363,-6.18463 -0.52807,-8.73125 -0.14444,-2.54661 -0.38619,-6.59474 -0.53722,-8.99583 -0.15104,-2.4011 -0.39083,-6.2111 -0.53286,-8.46667 -0.14204,-2.25557 -0.37799,-6.24416 -0.52434,-8.86353 -0.14635,-2.61938 -0.38028,-6.36985 -0.51984,-8.33438 -0.13957,-1.96453 -0.32741,-5.23875 -0.41742,-7.27604 -0.09,-2.037292 -0.27878,-4.061354 -0.41948,-4.497917 -0.14777,-0.458496 -0.77275,-1.174316 -1.4797,-1.694781 l -1.22389,-0.90103 0.94719,-0.868036 c 2.20763,-2.023136 7.32729,-2.301218 9.39187,-0.510134 l 0.72804,0.631595 -1.14602,1.173989 -1.14602,1.173989 0.0172,2.342436 c 0.01,1.28834 0.19455,4.726769 0.41131,7.640959 0.21676,2.91418 0.5765,8.45367 0.79942,12.30997 0.22292,3.8563 0.52214,8.73786 0.66493,10.84791 0.14279,2.11005 0.43938,7.05115 0.65908,10.98021 0.41205,7.36886 0.82162,14.56765 1.10876,19.48774 l 0.16451,2.819 0.78785,0.15757 c 0.43331,0.0867 1.75522,0.15687 2.93758,0.15602 1.18236,-8.5e-4 4.23333,0.12642 6.77995,0.28281 2.54661,0.15639 7.42085,0.42498 10.83164,0.59686 l 6.20144,0.3125 -0.0271,5.24625 -0.0271,5.24624 -1.27093,1.63292 c -6.51114,8.36561 -7.55824,9.57865 -8.80468,10.19989 l -1.26293,0.62946 -0.17101,8.36637 c -0.1742,8.52218 -0.60325,20.00533 -0.92518,24.76136 -0.16697,2.46676 -0.22207,2.66107 -0.85506,3.01545 -1.00633,0.5634 -2.2233,-0.0598 -2.26085,-1.15772 -0.0332,-0.96971 0.33222,-13.79125 0.55787,-19.57563 l 0.16515,-4.23334 -2.78461,2.76265 c -3.68594,3.65687 -3.9077,4.16847 -4.02065,9.2755 -0.4325,19.55532 -0.71167,27.45111 -0.99161,28.04623 -0.36568,0.7774 -1.41599,0.94837 -2.79046,0.45423 z m -1.88263,-33.39233 c 0,-0.44119 -1.20733,-2.78223 -1.43864,-2.78955 -0.15463,-0.005 -5.34131,-0.70616 -11.52594,-1.55839 -9.90652,-1.3651 -11.34456,-1.50842 -12.08311,-1.20425 -0.46107,0.18989 -0.87779,0.30601 -0.92604,0.25805 -0.0482,-0.048 -2.64757,-0.45854 -5.77627,-0.91241 -3.12869,-0.45386 -5.92666,-0.87307 -6.2177,-0.93158 -0.59958,-0.12052 -1.66368,1.0819 -1.28657,1.4538 0.23062,0.22742 5.70834,1.07685 26.42198,4.09726 11.28909,1.64615 12.83229,1.83701 12.83229,1.58707 z m 14.19691,-9.87511 c 0.086,-0.33669 0.0523,-0.83917 -0.0749,-1.11662 -0.2029,-0.44243 -0.64467,-0.10686 -3.59252,2.72883 -3.19666,3.07504 -3.37471,3.30191 -3.63802,4.63537 -0.15227,0.77115 -0.27685,1.48393 -0.27685,1.58396 0,0.41372 7.4387,-7.26948 7.58232,-7.83154 z m -15.35446,6.3448 c 0.0182,-0.16977 0.048,-0.53673 0.0661,-0.81547 0.0529,-0.81007 3.32692,-3.52159 4.4779,-3.70853 l 0.97913,-0.15903 0.0707,-6.53122 0.0707,-6.53123 -0.86449,-0.13875 c -0.47547,-0.0763 -6.81761,-0.74595 -14.09365,-1.48807 -7.27605,-0.74213 -17.43483,-1.79111 -22.57508,-2.33107 -5.14025,-0.53997 -9.39003,-0.91037 -9.44396,-0.82311 -0.0539,0.0873 -7.3e-4,2.6464 0.11822,5.68698 0.16915,4.32411 0.29558,5.55195 0.58041,5.63677 0.20029,0.0596 1.0555,0.83511 1.90048,1.72327 l 1.53632,1.61484 -0.18631,-5.70622 -0.18631,-5.70621 1.79675,-0.69438 1.79675,-0.69437 4.65844,0.50112 c 2.56215,0.27562 5.70969,0.58459 6.99454,0.68661 1.34889,0.10709 2.37399,0.31128 2.42578,0.48316 0.0493,0.16373 0.15115,3.11543 0.22626,6.55933 l 0.13655,6.26163 -0.91093,0.61753 c -0.50189,0.34024 -0.88047,0.80581 -0.84309,1.03681 0.0373,0.23061 -0.28383,0.72178 -0.71366,1.0915 l -0.7815,0.67223 0.78204,0.16291 c 0.43012,0.0896 4.83017,0.70315 9.77788,1.36344 4.94771,0.66029 9.59114,1.30129 10.31875,1.42446 1.53501,0.25983 1.83981,0.22832 1.88515,-0.19493 z m -24.50703,-2.42534 c 0,-0.14552 -0.47236,-0.26459 -1.04968,-0.26459 -0.57733,0 -2.86928,-0.29132 -5.09323,-0.64739 -6.3384,-1.01481 -7.39774,-1.14575 -7.13378,-0.8818 0.13272,0.13273 2.01342,0.48357 4.17932,0.77966 2.1659,0.29608 4.95003,0.69187 6.18695,0.87953 2.92725,0.4441 2.91042,0.44332 2.91042,0.13459 z m 39.44737,-7.17826 c 0.0862,-0.78359 0.28388,-1.84053 0.43926,-2.34875 0.15538,-0.50822 0.35391,-1.2471 0.44117,-1.64195 0.1718,-0.77734 0.50628,-0.91173 -8.51166,3.41993 l -1.38906,0.66723 v 2.35027 c 0,1.83473 0.081,2.35028 0.3693,2.35028 0.20311,0 0.75274,0.59755 1.22139,1.32789 l 0.85211,1.32789 3.21037,-3.01404 c 3.20275,-3.00689 3.21075,-3.01742 3.36712,-4.43875 z m -37.67961,6.31836 c 0.48095,-0.32742 0.87527,-0.67958 0.87627,-0.78258 0.002,-0.2132 -1.3725,-0.11568 -2.42067,0.17174 -0.46772,0.12825 -0.91141,0.0559 -1.32688,-0.21631 -0.36732,-0.24068 -2.60851,-0.68887 -5.44594,-1.08908 -4.4488,-0.62749 -4.88335,-0.64823 -5.61843,-0.2681 -0.43818,0.22659 -0.79669,0.50551 -0.79669,0.61982 0,0.18685 11.34404,1.90614 12.52597,1.89842 0.26809,-0.002 0.79016,-0.24131 1.16016,-0.53235 0.97362,-0.76585 1.41298,-0.64962 0.46908,0.12409 -0.99742,0.81758 -0.59143,0.86988 0.57713,0.0744 z m -1.29849,-5.55625 -0.0724,-4.56406 -0.72761,-0.0837 -0.7276,-0.0837 v 4.47139 c 0,2.45927 0.0794,4.55077 0.17639,4.64778 0.097,0.097 0.45701,0.17639 0.79999,0.17639 h 0.62361 z m -1.84091,-0.4089 -0.0836,-4.4438 1.38013,-1.11772 1.38014,-1.11773 0.24965,0.86517 c 0.24414,0.84608 0.25018,0.83706 0.27351,-0.409 0.0345,-1.8407 -0.29023,-2.29677 -1.63909,-2.3022 -0.61334,-0.002 -3.67501,-0.2981 -6.80371,-0.65697 -3.1287,-0.35886 -5.77244,-0.65449 -5.87498,-0.65696 -0.19266,-0.005 -0.0401,7.63396 0.22113,11.0696 0.10603,1.39459 0.22899,1.86493 0.43398,1.65994 0.17725,-0.17725 0.39773,-0.19332 0.57977,-0.0422 0.16155,0.13408 1.71815,0.43993 3.4591,0.67967 1.74096,0.23973 3.70115,0.5306 4.356,0.64637 2.36359,0.41785 2.16195,0.82487 2.06794,-4.17413 z m -4.84607,2.32713 c -0.28597,-0.46272 0.1381,-0.85372 0.55272,-0.50962 0.20533,0.17041 0.37332,0.41431 0.37332,0.54202 0,0.31897 -0.72454,0.29363 -0.92604,-0.0324 z m -0.0758,-2.87605 c 0.13401,-1.39466 -0.18304,-1.86707 -0.47428,-0.70668 -0.21022,0.83756 -0.83644,1.376 -1.1896,1.02284 -0.36396,-0.36396 -0.0611,-1.02103 0.63064,-1.36826 0.49046,-0.2462 0.38018,-0.28197 -0.71524,-0.23198 -0.84322,0.0385 -1.33557,-0.0563 -1.41106,-0.2715 -0.13779,-0.39286 0.69898,-0.77775 0.94694,-0.43557 0.0945,0.13035 0.5705,0.25583 1.05787,0.27886 l 0.88614,0.0419 -0.72207,-0.75367 c -0.45234,-0.47215 -0.66051,-0.91409 -0.55727,-1.18312 0.22361,-0.58274 0.62879,-0.27923 1.08507,0.81282 0.46682,1.11725 0.76822,1.14056 1.37896,0.10664 0.50353,-0.8524 1.21203,-0.95034 1.35888,-0.18784 0.0593,0.30785 -0.0793,0.45998 -0.41898,0.45998 -0.27916,0 -0.70749,0.22093 -0.95186,0.49095 -0.42806,0.47301 -0.39699,0.4864 0.85066,0.36651 0.80058,-0.0769 1.36499,-0.0111 1.47839,0.17239 0.25305,0.40943 -0.60896,0.69837 -0.97913,0.3282 -0.37334,-0.37334 -1.25222,-0.39401 -1.25222,-0.0295 0,0.14864 0.29766,0.40588 0.66146,0.57164 0.44062,0.20076 0.66146,0.5154 0.66146,0.94242 0,0.73402 -0.4792,0.69322 -0.90714,-0.0773 -0.88079,-1.58579 -0.9883,-1.63465 -0.89828,-0.40822 0.0601,0.81903 -0.0239,1.20368 -0.28206,1.29115 -0.2928,0.0992 -0.34113,-0.15189 -0.23728,-1.23271 z m -0.20865,-3.32662 c -0.17127,-0.68239 0.0164,-1.20566 0.43236,-1.20566 0.13693,0 0.24897,0.41672 0.24897,0.92604 0,1.0611 -0.43988,1.24163 -0.68133,0.27962 z m 0.006,-2.02247 c -0.27266,-0.44117 0.34058,-0.94708 0.70557,-0.58208 0.30531,0.30531 0.11423,0.86972 -0.29445,0.86972 -0.12834,0 -0.31335,-0.12944 -0.41112,-0.28764 z m 7.07862,-1.35278 c -0.46645,-0.46646 -0.38806,-0.74083 0.21167,-0.74083 0.35278,0 0.52917,0.17639 0.52917,0.52917 0,0.59973 -0.27438,0.67812 -0.74084,0.21166 z m 1.14433,10.84752 c -0.0255,-0.40724 -0.0671,-2.40731 -0.0926,-4.4446 -0.0387,-3.09563 -0.1115,-3.70417 -0.44317,-3.70417 -0.33716,0 -0.39688,0.67433 -0.39688,4.48148 0,4.19725 0.031,4.47913 0.48948,4.4446 0.36325,-0.0274 0.47754,-0.22781 0.44318,-0.77731 z m 2.71012,-6.82506 c 0.039,-3.51893 -0.0205,-6.35455 -0.13229,-6.30138 -0.11176,0.0532 -0.64968,0.32399 -1.19538,0.60181 l -0.99219,0.50512 v 6.46016 6.46015 l 1.12448,-0.6639 1.12448,-0.66391 z m 31.55054,-0.10545 c 2.40315,-1.17937 5.13254,-2.47084 6.06532,-2.86995 0.93278,-0.39911 1.64433,-0.77728 1.58122,-0.84039 -0.0631,-0.0631 -2.55438,-0.36177 -5.53615,-0.6637 -2.98178,-0.30194 -5.92744,-0.62189 -6.5459,-0.71101 l -1.12448,-0.16204 v 3.88433 3.88433 l 0.59531,-0.18864 c 0.32743,-0.10375 2.56153,-1.15357 4.96468,-2.33293 z M 163.704,185.85614 c 0.12551,-0.11643 0.17989,-0.35664 0.12084,-0.53378 -0.0694,-0.20823 -0.38392,-0.0708 -0.88966,0.38862 -0.77073,0.70021 -0.77252,0.7081 -0.12084,0.53379 0.3638,-0.0973 0.76415,-0.2722 0.88966,-0.38863 z m 43.97051,-3.10227 c 0.25906,-0.40018 1.16228,-1.57723 2.00715,-2.61567 4.57065,-5.61783 6.28018,-8.03381 5.68467,-8.03381 -0.32519,0 -7.74152,9.45145 -7.91112,10.08201 -0.1133,0.42125 -0.27601,0.76591 -0.36159,0.76591 -0.0856,0 -0.0957,-0.22882 -0.0226,-0.50849 0.16359,-0.62557 1.19124,-0.4838 -14.62333,-2.01742 -13.93961,-1.35179 -53.38654,-5.33361 -54.71883,-5.52338 -0.82071,-0.1169 -0.87091,-0.0796 -0.79375,0.58881 0.0699,0.60561 0.22251,0.72518 1.00841,0.79007 0.89963,0.0743 17.00507,1.76491 24.47396,2.56908 4.86541,0.52387 21.54344,2.2717 32.67604,3.42441 4.87495,0.50477 9.28026,0.96358 9.78958,1.01958 2.14579,0.23593 2.30886,0.20432 2.79142,-0.5411 z m -41.87047,-1.04876 0.84676,-0.45345 -1.98438,-0.19232 c -1.0914,-0.10577 -4.01056,-0.3971 -6.48701,-0.6474 -4.07357,-0.41173 -4.61564,-0.41653 -5.68854,-0.0504 l -1.1859,0.40466 1.32291,0.20932 c 2.22335,0.3518 9.43984,1.10956 10.9272,1.1474 0.87932,0.0224 1.71796,-0.13341 2.24896,-0.41777 z m 42.96598,-2.2232 c 0.84536,-1.03559 2.57706,-3.14895 3.8482,-4.69635 1.27115,-1.5474 2.31294,-2.88495 2.31511,-2.97233 0.002,-0.0874 -1.57365,-0.23906 -3.5018,-0.33707 -1.92815,-0.098 -4.22011,-0.24394 -5.09323,-0.3243 l -1.5875,-0.1461 -2.51872,1.93838 c -1.38529,1.06611 -3.39684,2.65034 -4.47011,3.52051 -1.82569,1.48022 -1.91058,1.59425 -1.31774,1.77012 0.90403,0.26819 -1.3782,0.0868 -13.78614,-1.09548 -6.03912,-0.57545 -16.15943,-1.52442 -22.48958,-2.10883 -6.33016,-0.58441 -12.99766,-1.25005 -14.81667,-1.4792 l -3.30729,-0.41663 -2.11667,0.65805 c -1.16417,0.36193 -2.05714,0.67939 -1.98438,0.70548 0.20409,0.0732 17.28666,1.83634 37.10919,3.8302 l 17.9269,1.80319 0.59394,-0.53463 c 0.32666,-0.29405 0.77253,-0.62495 0.99081,-0.73533 0.21828,-0.11038 0.0397,0.0994 -0.39688,0.46609 -0.43656,0.36673 -0.73422,0.71928 -0.66145,0.78344 0.16784,0.14802 10.5191,1.16763 12.35359,1.21684 l 1.37339,0.0368 z m -3.68849,-0.409 c 0.1819,-0.0734 0.47955,-0.0734 0.66145,0 0.18191,0.0734 0.0331,0.13346 -0.33072,0.13346 -0.36381,0 -0.51263,-0.0601 -0.33073,-0.13346 z m -7.85532,-2.50204 c 1.06312,-0.89042 3.06351,-2.468 4.4453,-3.50573 l 2.51236,-1.88679 -1.30404,-0.15863 -1.30403,-0.15863 -3.46896,2.53988 c -1.90792,1.39693 -4.05105,2.9566 -4.7625,3.46592 l -1.29354,0.92604 1.45521,0.15532 c 0.80036,0.0854 1.52992,0.17471 1.62123,0.19843 0.0913,0.0237 1.03585,-0.6854 2.09897,-1.57581 z m -1.83527,-1.63105 c 4.99038,-3.56975 5.53132,-3.97404 5.4398,-4.06556 -0.0424,-0.0424 -6.79774,-0.55745 -15.01186,-1.14455 -8.21411,-0.5871 -16.5637,-1.19984 -18.55463,-1.36164 l -3.61989,-0.29418 -6.30199,2.03438 c -10.56589,3.41083 -10.08645,3.23663 -9.3447,3.39519 0.36381,0.0778 7.98381,0.81869 16.93334,1.64649 8.94953,0.8278 18.35546,1.71641 20.90208,1.97468 2.54661,0.25828 4.88312,0.48454 5.19223,0.5028 0.32699,0.0193 2.1526,-1.10458 4.36562,-2.68761 z m -40.83395,-4.2374 c 4.26246,-1.37518 7.82442,-2.57482 7.91545,-2.66585 0.091,-0.091 -0.56535,-0.16551 -1.45863,-0.16551 -1.66536,0 -3.54877,0.49263 -13.21253,3.45589 -2.50911,0.76939 -4.5012,1.45971 -4.42686,1.53405 0.21435,0.21435 2.32059,0.5258 2.90346,0.42933 0.29104,-0.0482 4.01664,-1.21272 8.27911,-2.58791 z m 60.77367,-3.50833 c 0.10611,-2.26411 0.12936,-4.18013 0.0517,-4.25783 -0.0777,-0.0777 -3.51361,-0.30657 -7.63535,-0.50861 -15.2186,-0.74598 -23.82945,-1.20999 -31.57117,-1.70127 -4.36563,-0.27704 -9.90203,-0.58565 -12.30313,-0.6858 l -4.36562,-0.1821 0.13229,3.80785 0.13229,3.80785 4.10104,0.30247 c 2.25558,0.16636 7.67292,0.55765 12.03855,0.86953 4.36562,0.31188 12.16421,0.87121 17.3302,1.24296 13.87951,0.99876 19.02427,1.34588 20.5393,1.38577 l 1.35701,0.0357 z m -27.3809,-6.6759 c 0,-0.42684 -0.24873,-0.46686 -2.51376,-0.40453 -3.71364,0.10221 -3.32399,0.82529 0.46323,0.85964 1.80104,0.0163 2.05053,-0.039 2.05053,-0.45511 z m -0.29217,-1.53479 c 0.1363,-0.1264 -0.81909,-17.21407 -2.35075,-42.04462 -0.7088,-11.49069 -1.08395,-16.62372 -1.23251,-16.8641 -0.18852,-0.305036 -3.07556,-0.241204 -4.02259,0.0889 -0.45828,0.15975 -0.83206,0.42764 -0.83062,0.59531 10e-4,0.16766 0.11898,1.97172 0.26121,4.00901 0.14222,2.03729 0.5574,8.76433 0.92262,14.94896 0.36523,6.18464 1.02148,17.13839 1.45834,24.34167 0.43685,7.20328 0.7944,13.48766 0.79454,13.9653 1.9e-4,0.65001 0.14998,0.93127 0.59557,1.11832 0.52712,0.22127 4.13462,0.0912 4.40419,-0.15878 z M 182.5549,99.129114 c 1.63468,0.104089 1.71731,0.08143 1.57914,-0.432961 -0.0802,-0.298538 -0.14743,-0.989281 -0.14942,-1.534984 l -0.004,-0.992188 -1.91823,0.0036 c -3.20316,0.006 -3.42517,0.200732 -2.94822,2.585504 0.15181,0.759058 0.20334,0.788292 0.93802,0.532179 0.42757,-0.149049 1.55361,-0.221573 2.50233,-0.161163 z m -0.36021,-3.320116 c 1.29564,0.02676 1.78594,-0.05626 1.78594,-0.302422 0,-0.467943 -0.61378,-0.660512 -2.10524,-0.660512 -2.01608,0 -2.92185,0.257876 -2.92185,0.831863 0,0.419632 0.11834,0.468042 0.72761,0.297657 0.40018,-0.111913 1.53127,-0.186877 2.51354,-0.166586 z m -1.75591,-1.206103 c 0.71109,-0.133743 1.77219,-0.154615 2.358,-0.04638 1.03101,0.190485 1.10176,0.155737 2.20914,-1.084928 0.65635,-0.735353 1.08229,-1.442567 0.99921,-1.659058 -0.19218,-0.500811 -2.60477,-1.199797 -4.14117,-1.199797 -1.71277,0 -3.84023,0.686376 -4.8082,1.551257 l -0.81759,0.730515 1.29154,0.956676 c 1.51065,1.118974 1.27719,1.058646 2.90907,0.751717 z m 82.86724,96.370755 c 0.19099,-0.0764 0.4192,-0.067 0.50711,0.0209 0.0879,0.0879 -0.0684,0.15045 -0.34726,0.13896 -0.30823,-0.0127 -0.37092,-0.0754 -0.15985,-0.15985 z"
       id="path1"
       clip-path="url(#clipPath2)"
       transform="translate(-34.251185,-30.028436)" /></g></svg>
