<?xml version="1.0" encoding="UTF-8" standalone="no"?>
<!-- Created with Inkscape (http://www.inkscape.org/) -->

<svg
   version="1.1"
   id="svg1"
   width="316"
   height="546"
   viewBox="0 0 316 546"
   xml:space="preserve"
   xmlns="http://www.w3.org/2000/svg"
   xmlns:svg="http://www.w3.org/2000/svg"><defs
     id="defs1" /><g
     id="g1"
     transform="translate(-1162.2008,-458.08524)"><g
       id="g146"
       transform="translate(587.21364,1066.5717)"><path
         style="fill:#b4b8c6"
         d="m 574.98712,-335.48645 v -273 h 158 158 v 273 273 h -158 -158 z m 306,0.5 v -261.5 h -147.5 -147.5 v 261.5 261.5 h 147.5 147.5 z M 593.65725,-80.149658 c -0.36857,-0.368569 -0.67013,-115.346682 -0.67013,-255.506922 v -254.83679 l 140.75,0.25346 140.75,0.25346 v 255 255 l -140.07987,0.253459 c -77.04393,0.139402 -140.38143,-0.0481 -140.75,-0.416667 z m 65.20487,-46.961792 3.125,-0.625 v -10.63221 -10.6322 l -4.25,0.33773 -4.25,0.33774 0.34669,8.27513 0.34669,8.27513 -3.22169,0.64434 c -6.28508,1.25702 -16.35292,0.65437 -20.49388,-1.22674 -9.26348,-4.2081 -13.59726,-12.29407 -11.43035,-21.32676 2.80867,-11.70786 17.03809,-17.71339 31.54361,-13.31298 2.69991,0.81904 5.02143,1.49404 5.15893,1.5 0.1375,0.006 0.25,-1.28293 0.25,-2.86418 0,-2.42 -0.49456,-2.97391 -3.125,-3.5 -4.86018,-0.97204 -16.25395,-0.73708 -21.78562,0.44925 -6.33199,1.35797 -16.12661,7.63188 -18.88672,12.09784 -4.97272,8.04603 -3.65875,17.77791 3.30443,24.4742 6.73465,6.47651 12.6002,8.23962 27.61791,8.3016 6.94375,0.0287 14.03125,-0.22914 15.75,-0.57289 z m 16.08031,-0.92885 c -1.07851,-1.29953 -0.73958,-2.69078 2.07074,-8.5 l 3.36033,-6.94615 h 11.35935 11.35935 l 3.02571,6.46579 c 1.90961,4.08075 2.78755,7.21614 2.38007,8.5 -0.60531,1.90716 -0.22804,2.03421 6.04044,2.03421 h 6.68608 l -2.43578,-3.25 c -1.33968,-1.7875 -6.64595,-11.9125 -11.7917,-22.5 l -9.35592,-19.25 h -5.89437 c -5.3108,0 -5.83539,0.18586 -5.29858,1.87722 0.59071,1.86114 -16.86763,37.57627 -20.22392,41.37278 -1.45271,1.64325 -1.19467,1.75 4.23035,1.75 5.1111,0 5.6287,-0.17921 4.48785,-1.55385 z m 8.80195,-20.02223 c -0.61397,-0.61396 7.35398,-17.45155 8.22646,-17.38387 0.58864,0.0457 8.06973,16.06437 8.03743,17.20995 -0.0245,0.87008 -15.40328,1.03454 -16.26389,0.17392 z m 54.27793,19.64182 c -0.60762,-1.13534 -1.03519,-9.6507 -1.03519,-20.61649 v -18.68224 l 6.63473,0.42247 c 5.77849,0.36794 6.94941,0.7883 9.07309,3.25722 4.32207,5.02471 1.28027,10.17678 -7.45183,12.62162 -2.34079,0.65538 -4.25599,1.57169 -4.25599,2.03625 0,0.46455 4.32245,5.34802 9.60544,10.85215 9.55171,9.95151 12.84485,12.02209 19.14528,12.0377 1.82032,0.005 0.24322,-2.05011 -8.24729,-10.74442 -5.7739,-5.9125 -10.49922,-11.03291 -10.50071,-11.37868 -10e-4,-0.34577 1.40707,-1.21263 3.13014,-1.92635 9.0358,-3.74275 11.56137,-10.40459 6.03834,-15.92762 -3.94884,-3.94884 -8.78558,-5.00534 -22.94425,-5.01177 l -12.27305,-0.006 1.56654,2.39085 c 1.30809,1.99639 1.51807,5.41979 1.27273,20.75 -0.16159,10.09753 -0.67931,19.14665 -1.15048,20.10915 -0.77198,1.577 -0.20006,1.75 5.78551,1.75 6.25704,0 6.58215,-0.11215 5.60699,-1.93426 z m 74.51287,-1.15867 c 1.95558,-3.78169 1.62282,-4.2112 -2.22375,-2.87028 -1.65,0.57519 -7.01047,0.91472 -11.91215,0.75451 l -8.91216,-0.2913 -0.29108,-8.89742 -0.29108,-8.89742 7.04108,0.6544 c 7.02307,0.65273 7.04108,0.64799 7.04108,-1.85258 0,-2.43876 -0.19172,-2.50698 -7.04569,-2.50698 h -7.04569 l 0.29569,-6.75 0.29569,-6.75 6.38378,-0.30119 c 3.51108,-0.16565 7.67358,0.14844 9.25,0.69798 2.73274,0.95264 2.86622,0.86188 2.86622,-1.94881 v -2.94798 h -15.65499 c -15.10295,0 -15.59662,0.0645 -14,1.82874 2.38983,2.64073 2.47364,37.55747 0.0983,40.94875 l -1.55671,2.22251 h 17.03103 17.03102 z m 43.4125,2.11404 c 1.00599,-0.53839 2.30441,-2.34245 2.88539,-4.00903 1.01991,-2.92574 0.98047,-2.98923 -1.14482,-1.84282 -1.21062,0.65302 -7.03863,1.38989 -12.95113,1.63748 l -10.75,0.45016 v -18.19419 c 0,-10.62937 0.43041,-18.99842 1.03519,-20.12845 0.97463,-1.82112 0.65086,-1.93426 -5.53519,-1.93426 -6.27381,0 -6.52176,0.0908 -5.49345,2.01224 1.27593,2.3841 0.95719,38.54079 -0.36354,41.23776 -0.79758,1.62868 0.22953,1.75 14.81574,1.75 8.62001,0 16.49582,-0.4405 17.50181,-0.97889 z m -188.71056,-68.66296 3.75,-0.61983 v -6.36916 c 0,-6.28108 -0.038,-6.36918 -2.75,-6.37093 -2.65113,-0.002 -2.75,0.18703 -2.75,5.25 v 5.25177 l -6.92306,0.29963 c -7.97382,0.34512 -11.60863,-0.86014 -15.09719,-5.00606 -6.54788,-7.78172 0.62316,-17.79357 12.74473,-17.79357 2.3588,0 5.74825,0.41859 7.53212,0.93019 2.85891,0.81993 3.2434,0.70138 3.2434,-1 0,-1.76681 -0.77738,-1.93019 -9.18427,-1.93019 -7.25525,0 -10.08584,0.43644 -13.47667,2.07791 -13.31952,6.44787 -11.99802,19.34722 2.51315,24.53117 3.89214,1.39043 14.22248,1.76979 20.39779,0.74907 z m 75.25,-0.37853 5,0.0821 v -13.53084 -13.53084 l -3.5,-0.002 -3.5,-0.002 0.31058,10.90291 c 0.29606,10.39328 0.20386,10.97765 -1.97251,12.50204 -2.90418,2.03416 -12.7044,2.14857 -15.39694,0.17974 -1.71932,-1.2572 -1.94113,-2.68555 -1.94113,-12.5 v -11.08061 l -3,-10e-4 -3,-0.001 0.34819,10.75034 c 0.19151,5.91268 0.78944,11.57481 1.32874,12.5825 1.74698,3.26426 6.72206,4.75186 13.82307,4.13324 3.575,-0.31144 8.75,-0.52934 11.5,-0.48421 z m 81.7067,-2.15216 c 4.95576,-2.73591 8.7933,-7.9609 8.7933,-11.97246 0,-3.74253 -5.94452,-10.3382 -10.81597,-12.00073 -5.87933,-2.0065 -18.02014,-1.48869 -22.8484,0.97451 -13.98553,7.13488 -12.11125,20.0991 3.6579,25.30133 4.63386,1.52871 16.6323,0.2263 21.21317,-2.30265 z m -23.33069,-2.21686 c -4.06709,-2.81852 -4.87601,-4.32115 -4.87601,-9.05753 0,-9.21465 12.90874,-14.50278 23.57586,-9.65796 7.83848,3.56009 9.18054,12.22731 2.81876,18.20389 -2.1462,2.01625 -3.75577,2.44271 -10.22098,2.70808 -6.84978,0.28115 -8.06272,0.0453 -11.29763,-2.19648 z m -114.37601,-7.85952 v -12.25108 l 4.23953,0.0855 c 4.86247,0.0981 8.29769,2.55615 7.55286,5.40439 -0.42958,1.64269 -4.05041,3.94715 -8.10856,5.16063 -0.78844,0.23576 1.47807,3.09118 5.65277,7.12151 5.81014,5.60921 7.52552,6.72347 10.31617,6.70108 l 3.34723,-0.0269 -6.77962,-6.22314 c -6.84515,-6.28328 -7.84354,-7.72314 -5.35524,-7.72314 2.50883,0 6.63486,-4.07296 6.63486,-6.54953 0,-4.11946 -4.0942,-5.84331 -14.91201,-6.27861 l -9.58799,-0.38582 v 13.60586 13.60585 l 3.5,0.002 3.5,0.002 z m 78.7,11.04892 c -0.78364,-0.78364 -1.2,-4.9086 -1.2,-11.88871 v -10.68871 l 3.44732,-0.64672 c 2.16715,-0.40656 4.76663,-0.0955 7,0.83768 4.62856,1.93394 5.01779,6.21485 0.80268,8.82823 l -2.75,1.70501 3.11514,0.0266 c 4.36736,0.0373 8.38486,-3.36211 8.38486,-7.09486 0,-4.46196 -5.86498,-6.82764 -17,-6.85708 l -8.5,-0.0225 v 13.49963 13.49964 l 3.95,8.7e-4 c 3.07222,6.9e-4 3.68333,-0.26579 2.75,-1.19912 z m 61.8,-62.3 v -3.5 h -93 -93 v 3.5 3.5 h 93 93 z m -24.40566,-44.5764 c 18.213,-2.5332 26.34569,-8.66009 29.31871,-22.08775 1.19191,-5.38325 4.07057,-55.08032 4.36712,-75.39389 0.21497,-14.72472 0.16211,-15.1456 -2.38796,-19.01367 -1.58267,-2.40067 -4.72749,-5.11054 -8,-6.89354 -4.50323,-2.45356 -6.79354,-2.99794 -13.89221,-3.30205 -10.03433,-0.42987 -14.45062,1.32987 -17.2201,6.86163 -1.6318,3.25936 -1.624,4.28201 0.15195,19.9207 1.02963,9.06673 2.89621,30.11743 4.14796,46.77934 l 2.2759,30.29436 -2.05185,2.05185 c -4.13476,4.13477 -20.53539,4.58716 -44.80386,1.23587 -13.55487,-1.87182 -19.68624,-3.57908 -30.12402,-8.38795 -27.46313,-12.65274 -46.36024,-35.90712 -54.07865,-66.54802 -2.47331,-9.81871 -2.75506,-12.68355 -2.74782,-27.94048 0.007,-15.32972 0.28366,-18.08077 2.81308,-28 4.2636,-16.71984 10.97545,-29.61135 20.84576,-40.03866 9.41529,-9.9466 18.41999,-16.21208 29.34709,-20.41973 17.16797,-6.61079 30.43776,-9.04161 49.35799,-9.04161 14.73666,0 19.08964,1.26717 29.94545,8.71722 7.72821,5.30366 8.87741,5.78278 13.87033,5.78278 4.72499,0 5.76269,-0.37055 7.85738,-2.80576 3.01297,-3.5028 3.00365,-3.83934 -0.21238,-7.66136 -3.3872,-4.02546 -7.77237,-6.18856 -18.87421,-9.3102 -14.15516,-3.98018 -19.13193,-4.81075 -32.5,-5.42388 -30.72728,-1.40931 -63.063,6.75318 -89,22.46623 -23.59042,14.29147 -41.38539,33.09927 -51.45482,54.38345 -7.53114,15.9189 -9.05589,22.85626 -8.97866,40.85152 0.0593,13.80573 0.3602,16.48377 2.7533,24.5 10.43648,34.95936 41.00579,65.1476 79.13537,78.14888 11.37921,3.88004 28.40159,8.16848 38.54481,9.71057 11.54952,1.7559 50.46343,2.11231 61.59434,0.56415 z"
         id="path152" /><path
         style="fill:#969cae"
         d="m 574.98712,-335.48645 v -272 h 158 158 v 272 272 h -158 -158 z m 307,0.5 v -261.5 h -148 -148 v 261.5 261.5 h 148 148 z m -289,0 v -254.5 h 141 141 v 254.5 254.5 h -141 -141 z m 66.75,207.94351 c 2.15405,-0.64791 2.25,-1.14088 2.25,-11.56014 v -10.88337 h -5 c -4.97741,0 -5.94872,0.65128 -3.95087,2.64913 0.59328,0.59328 0.91916,4.04755 0.75,7.95 l -0.29913,6.90087 -7.08397,0.86922 c -11.62103,1.42594 -21.96889,-2.73629 -25.95195,-10.43868 -1.88273,-3.64079 -1.88273,-12.22029 0,-15.86108 4.59674,-8.88911 19.23258,-12.94326 31.28592,-8.66625 l 4.25,1.50807 v -3.33901 c 0,-4.10322 -1.23838,-4.53968 -12.93439,-4.55862 -14.02148,-0.0227 -23.61528,3.8238 -30.3332,12.16165 -3.23674,4.01724 -4.46405,10.11118 -3.29326,16.352 1.36028,7.25096 11.31982,15.26726 21.69259,17.46007 4.63428,0.97969 24.82895,0.59591 28.61826,-0.54386 z m 15.61337,-2.37667 c -0.43834,-2.1917 0.22326,-4.34871 2.61721,-8.5329 l 3.20385,-5.59973 10.65778,0.28289 10.65779,0.2829 3.227,6.35872 c 2.50724,4.94048 3.00124,6.78056 2.21481,8.25 -0.95216,1.77915 -0.55432,1.89128 6.7101,1.89128 h 7.72227 l -2.62993,-2.75 c -1.44646,-1.5125 -6.8759,-11.56834 -12.06541,-22.34632 -5.18952,-10.77798 -10.05274,-19.81027 -10.80716,-20.07176 -0.75442,-0.26149 -3.53902,-0.28296 -6.188,-0.0477 -3.57035,0.31708 -4.67957,0.78411 -4.28769,1.80534 0.65598,1.70945 -16.26767,35.91607 -19.91239,40.24758 l -2.66139,3.16287 h 6.0639 6.06389 z m 8.63663,-19.5503 c 0,-1.05289 7.47581,-15.51654 8.02002,-15.51654 0.58121,0 4.02133,6.61964 6.62597,12.75 l 1.38085,3.25 h -8.01342 c -4.40738,0 -8.01342,-0.21756 -8.01342,-0.48346 z m 54.35699,20.73346 c -0.47134,-0.9625 -0.85699,-10.075 -0.85699,-20.25 v -18.5 l 5.56949,0.0167 c 7.3994,0.0222 10.93051,2.26216 10.93051,6.93375 0,4.11979 -2.84067,6.68503 -9.45286,8.53633 -2.50093,0.70022 -4.54714,1.48067 -4.54714,1.73433 0,1.29624 18.56851,20.01829 21.31074,21.48695 1.75409,0.93945 4.98159,1.72695 7.17221,1.75 l 3.98294,0.0419 -10.9328,-10.96681 c -6.01304,-6.03174 -10.73037,-11.09424 -10.48295,-11.25 0.24743,-0.15575 2.63703,-1.38457 5.31023,-2.7307 3.26745,-1.64538 5.38299,-3.54347 6.45502,-5.79155 1.48278,-3.10942 1.46671,-3.58164 -0.229,-6.73038 -3.0844,-5.7274 -8.94185,-7.53056 -24.46247,-7.53056 h -13.00531 l 1.43453,2.75 c 2.05347,3.93649 2.05347,35.56351 0,39.5 l -1.43453,2.75 h 7.04768 c 6.37189,0 6.96551,-0.16781 6.1907,-1.75 z m 75.00066,-1.87381 c 0.95044,-1.99309 1.59568,-3.7562 1.43387,-3.91801 -0.16182,-0.16181 -2.75417,0.3439 -5.76079,1.12381 -5.85572,1.51895 -11.8663,1.8009 -16.90573,0.79301 l -3.125,-0.625 v -7.98785 -7.98784 l 7,0.39553 7,0.39554 v -2.78269 c 0,-2.77857 -0.0104,-2.78269 -7,-2.78269 h -7 v -6.37117 -6.37117 l 4.87253,-0.64636 c 2.67988,-0.3555 5.49238,-0.45242 6.25,-0.21537 0.75761,0.23705 2.83997,0.68369 4.62747,0.99254 3.06421,0.52943 3.25,0.39146 3.25,-2.41347 v -2.975 h -15.5567 -15.55671 l 1.55671,2.22251 c 2.18111,3.11397 2.27104,35.88448 0.10984,40.02749 l -1.43453,2.75 h 17.25548 17.25549 z m 44.65331,0.37381 c 2.44547,-4.01086 2.51085,-5.17497 0.23904,-4.25637 -3.83894,1.55225 -15.09651,2.75647 -19.53978,2.09016 l -4.71022,-0.70634 v -17.21622 c 0,-13.96355 0.29411,-17.63612 1.55671,-19.43872 l 1.5567,-2.22251 h -7.16369 c -6.48237,0 -7.08219,0.16644 -6.30671,1.75 1.09319,2.23233 1.12774,38.00471 0.0396,41 l -0.81738,2.25 h 16.58208 16.58209 z m -189.26096,-66.38029 c 2.03538,-0.54546 2.25,-1.21188 2.25,-6.98634 v -6.38337 h -3.53518 c -3.18526,0 -3.43272,0.19146 -2.5,1.93426 1.58036,2.95293 1.26961,7.7618 -0.54661,8.45875 -0.86998,0.33384 -3.92463,0.60699 -6.78811,0.60699 -7.31933,0 -13.76318,-3.36478 -15.24929,-7.96271 -1.38642,-4.28951 -0.2188,-8.87754 2.87003,-11.27752 4.59473,-3.57004 13.83202,-4.58388 20.04437,-2.19998 1.26666,0.48606 1.70479,0.12434 1.70479,-1.40749 0,-2.63181 -4.83694,-3.6633 -13.11899,-2.79765 -10.89429,1.13868 -18.88101,7.30911 -18.88101,14.58722 0,8.46455 9.13873,14.04104 23,14.03471 4.675,-0.002 9.5125,-0.27523 10.75,-0.60687 z m 40.5009,0.046 c 0.32133,-0.32133 -1.96617,-2.85506 -5.08333,-5.63052 -3.11716,-2.77546 -6.28787,-5.62393 -7.04601,-6.32992 -1.1504,-1.07127 -0.71671,-1.62121 2.62155,-3.32426 4.24803,-2.16719 5.6141,-4.74138 4.024,-7.58272 -1.65974,-2.96581 -7.22049,-4.5483 -15.98499,-4.54905 l -8.28212,-7.2e-4 v 13.49959 13.49959 l 3.5,0.003 3.5,0.003 -0.3088,-12.00189 -0.3088,-12.00189 h 4.12454 c 5.02677,0 7.99306,1.45205 7.99306,3.91274 0,2.31162 -1.70325,3.74301 -6.38094,5.36247 l -3.67076,1.27085 7.06256,6.32327 c 3.88442,3.4778 8.28355,6.69126 9.77586,7.14102 3.55748,1.07217 3.77745,1.09215 4.46418,0.40541 z m 30.7491,-0.56851 c 0.825,-0.0857 3.18113,0.18746 5.23585,0.60708 l 3.73585,0.76294 -1.09533,-3.14207 c -0.63959,-1.83474 -0.93915,-7.70495 -0.71997,-14.10863 l 0.37536,-10.96657 -3.51588,-0.001 -3.51588,-10e-4 0.31774,10.25113 c 0.39513,12.74824 -0.23595,13.87247 -8.15593,14.52926 -4.2251,0.35038 -6.28902,0.0409 -8.23622,-1.23494 -2.57373,-1.68637 -2.59513,-1.80581 -2.26195,-12.62407 l 0.33636,-10.92159 -4,-2.7e-4 -4,-2.6e-4 0.51301,10.75149 c 0.28216,5.91333 0.89376,11.35047 1.35911,12.08255 0.46536,0.73208 2.2595,2.21802 3.98699,3.30208 3.02884,1.90071 6.87511,2.04055 19.64089,0.71412 z m 81.07186,-0.38809 c 13.91629,-4.84241 16.04783,-17.18971 4.17257,-24.17027 -4.2507,-2.49866 -5.6892,-2.78889 -13.82309,-2.78889 -8.351,0 -9.46922,0.24147 -13.95138,3.01272 -6.07291,3.75478 -8.9184,8.28334 -8.06457,12.83465 0.80291,4.27988 5.60975,9.13478 10.89977,11.00874 5.55427,1.96757 15.26982,2.01578 20.7667,0.10305 z m -17.07135,-2.58261 c -9.94153,-3.96423 -10.33919,-15.54966 -0.68419,-19.93317 10.74138,-4.87675 22.68368,0.44827 22.68368,10.11456 0,4.58468 -4.17095,9.32625 -9.0649,10.30504 -4.4716,0.89432 -9.99262,0.68669 -12.93459,-0.48643 z m -38.80931,-8.87466 -0.3088,-12.00189 h 4.3363 c 9.67106,0 11.84679,6.97808 3.2813,10.52394 -1.92173,0.79554 -1.91127,0.84343 0.26735,1.22383 3.48806,0.60902 9.12425,-1.65269 10.90992,-4.37798 1.29234,-1.97235 1.38274,-2.94268 0.46235,-4.96272 -1.74611,-3.83227 -6.80144,-5.40707 -17.3575,-5.40707 h -9.28212 v 13.5 13.5 l 4,0.002 4,0.002 z m 61.8088,-51.50189 v -3.5 h -93 -93 v 3.5 3.5 h 93 93 z m -27.32478,-43.98325 c 14.70324,-2.09037 20.93372,-4.4985 26.05989,-10.07236 2.62606,-2.85541 4.79827,-6.50139 5.71741,-9.59646 1.68928,-5.68842 5.95108,-74.52485 5.38691,-87.0093 -0.3074,-6.80258 -0.69276,-8.09164 -3.43788,-11.5 -3.92728,-4.87612 -9.14698,-7.8316 -16.32584,-9.24395 -10.40477,-2.04702 -19.86332,0.91938 -22.87073,7.17273 -1.08049,2.24668 -0.96297,6.13337 0.70941,23.46267 3.90963,40.51178 6.22668,70.57171 5.62464,72.97045 -1.04882,4.17883 -6.05484,5.43911 -21.41761,5.39194 -13.71899,-0.0421 -31.39692,-2.38502 -43.05093,-5.70565 -6.93895,-1.97715 -22.16295,-9.61066 -28.03418,-14.05669 -21.89291,-16.5786 -35.27138,-39.66664 -39.59177,-68.32597 -2.62698,-17.42611 -1.37938,-32.60285 4.19138,-50.98712 11.95502,-39.45321 43.85951,-60.87956 93.4367,-62.75002 16.93234,-0.63883 21.62895,0.55536 33.11127,8.41909 6.34944,4.34845 9.31174,5.75119 12.8667,6.09277 8.9745,0.86234 14.49882,-4.8681 10.23409,-10.61593 -4.10665,-5.53479 -21.80475,-11.68989 -40.96526,-14.24701 -19.3902,-2.58778 -50.1368,0.55336 -68.81942,7.03075 -38.61058,13.38653 -69.2319,38.86491 -83.62572,69.58052 -16.22188,34.61659 -10.28782,74.6449 15.42717,104.06427 23.34345,26.70619 53.63862,42.07812 96.19855,48.81165 17.6045,2.78525 43.93224,3.28072 59.17522,1.11362 z"
         id="path151" /><path
         style="fill:#77809b"
         d="m 574.98712,-335.48645 v -272 h 158 158 v 272 272 h -158 -158 z m 306.75188,0.75 0.25189,-261.75 H 733.989 585.98712 v 262.0033 262.0033 l 147.75,-0.2533 147.75,-0.2533 z m -288.75188,-0.25 v -254.5 h 141 141 v 254.5 254.5 h -141 -141 z m 67.25,208.01018 c 1.51525,-0.62702 1.75,-2.18541 1.75,-11.61717 v -10.89301 h -5.10699 c -4.51225,0 -5.01066,0.2038 -4.2798,1.75 0.45495,0.9625 0.84059,4.9 0.85699,8.75 l 0.0298,7 -7.19111,0.83808 c -12.11225,1.41161 -22.61768,-3.0462 -25.94486,-11.00927 -2.80254,-6.70741 -1.14005,-15.51051 3.78556,-20.04501 5.42069,-4.99026 17.68876,-6.74157 27.19148,-3.88167 l 4.65893,1.40213 v -3.38308 c 0,-3.64882 -0.0924,-3.70045 -8.69887,-4.86185 -5.9597,-0.80423 -17.27581,1.01138 -23.49714,3.76999 -5.46787,2.42452 -12.15946,8.84525 -13.84861,13.28806 -1.41527,3.72242 -1.15831,12.08951 0.46784,15.23415 3.41874,6.61111 11.23882,11.75869 22.07678,14.53207 2.81574,0.72053 25.63361,0.002 27.75,-0.87342 z m 15.19187,-1.88579 c -0.39787,-1.58523 0.43797,-4.42438 2.51226,-8.53351 l 3.1085,-6.15791 10.71868,0.28352 10.71869,0.28351 2.75774,5.5 c 1.78713,3.5642 2.58784,6.4679 2.275,8.25 l -0.48274,2.75 h 7.66209 7.66209 l -2.52359,-2.75 c -2.22239,-2.42179 -19.85059,-37.21554 -19.85059,-39.18022 0,-0.41789 -0.81113,-1.49387 -1.80252,-2.39107 -1.39874,-1.26584 -2.9668,-1.49337 -7,-1.01569 -4.61867,0.54701 -5.19748,0.87798 -5.19748,2.97193 0,2.71886 -17.21339,36.74921 -20.29118,40.11505 l -2.05745,2.25 h 6.19337 c 6.02043,0 6.17672,-0.0663 5.59713,-2.37561 z m 8.7248,-20.56564 c 0.96228,-2.71727 7.41618,-14.95102 7.91361,-15.00074 0.31916,-0.0319 2.1993,3.54199 4.1781,7.94199 l 3.59782,8 h -8.01143 c -4.57704,0 -7.86854,-0.4035 -7.6781,-0.94125 z m 54.39004,20.71874 c -1.26686,-1.80868 -1.55671,-5.52414 -1.55671,-19.95468 v -17.73218 l 3.43482,-0.64438 c 3.77612,-0.7084 9.74489,0.87631 12.07432,3.20575 0.81997,0.81997 1.49086,2.77605 1.49086,4.34685 0,3.52705 -3.21082,6.24029 -9.45286,7.98795 -2.50093,0.70022 -4.54714,1.47338 -4.54714,1.71813 0,1.42 18.94029,20.51338 21.60169,21.7763 2.75824,1.30887 10.39831,2.17235 10.39831,1.17521 0,-0.18896 -4.78979,-5.07573 -10.64398,-10.85949 l -10.64398,-10.51593 5.36612,-2.89051 c 8.49009,-4.57327 10.11213,-10.29113 4.5089,-15.89436 -3.45683,-3.45683 -8.66889,-4.48437 -22.77776,-4.49057 l -12.69069,-0.006 1.43453,2.75 c 2.04948,3.92883 2.04784,33.87589 -0.002,38.78212 l -1.44898,3.46788 h 7.50568 7.50568 z m 74.80094,-1.4013 c 0.95044,-1.99309 1.59629,-3.74176 1.43521,-3.88594 -0.16107,-0.14417 -3.59489,0.40845 -7.6307,1.22806 -4.69026,0.95251 -9.29062,1.2462 -12.75,0.81398 l -5.41216,-0.6762 v -8.04089 -8.04089 l 7,0.39553 7,0.39554 v -2.78269 c 0,-2.78036 -0.006,-2.78269 -7.04772,-2.78269 h -7.04771 l 0.29771,-6.25 0.29772,-6.25 7.23447,-0.2935 c 3.97896,-0.16142 8.14146,0.19191 9.25,0.78519 1.84404,0.9869 2.01553,0.77788 2.01553,-2.45651 v -3.53518 h -15.62244 c -14.41449,0 -15.51633,0.12778 -14.25,1.65253 2.15969,2.60044 2.5799,34.71852 0.51877,39.65151 l -1.54428,3.69596 h 17.26377 17.26376 z m 44.65331,0.37381 c 2.446,-4.01172 2.51345,-5.19502 0.23904,-4.19297 -0.9625,0.42405 -6.8125,0.97076 -13,1.21491 l -11.25,0.44391 v -17.38542 c 0,-14.11669 0.29269,-17.80328 1.55671,-19.60792 l 1.5567,-2.22251 h -7.4974 -7.4974 l 1.43453,2.75 c 1.08195,2.07409 1.43454,6.92834 1.43454,19.75 0,12.82166 -0.35259,17.67591 -1.43454,19.75 l -1.43453,2.75 h 16.95539 16.9554 z m -188.20912,-66.60637 c 0.90406,-0.57343 1.20962,-2.78405 1,-7.23469 -0.30082,-6.3873 -0.31197,-6.40894 -3.30184,-6.40894 -2.16821,0 -2.89506,0.4159 -2.62153,1.5 1.13961,4.51669 0.81624,8.53515 -0.73871,9.17971 -2.54188,1.05367 -9.23384,0.92185 -13.51247,-0.26617 -13.12148,-3.64336 -10.83518,-19.45946 3.08982,-21.37463 2.84163,-0.39083 6.20527,-0.41126 7.47475,-0.0454 1.26948,0.36585 3.09564,0.8848 4.05814,1.15322 1.25594,0.35026 1.75,-0.0902 1.75,-1.56029 0,-2.68106 -3.29064,-3.47792 -11.83048,-2.86488 -7.30673,0.52451 -13.90165,3.30734 -17.79582,7.50922 -1.76859,1.90834 -2.3737,3.71066 -2.3737,7.07008 0,3.92864 0.49444,4.97916 3.84258,8.16417 2.11341,2.01044 5.37591,4.14483 7.25,4.74307 4.04537,1.29137 21.8445,1.61833 23.70926,0.43553 z m 16.34533,-11.89363 -0.35282,-12.25 h 4.16857 c 5.06784,0 8.03708,1.44553 8.03708,3.91274 0,2.32222 -1.70445,3.74343 -6.46694,5.39224 l -3.75677,1.30063 7.09492,6.56881 c 6.7365,6.23696 12.34225,9.02358 14.25884,7.08808 0.41528,-0.41938 -2.31092,-3.504 -6.05822,-6.85472 l -6.81328,-6.09221 3.4397,-1.8524 c 4.31679,-2.32475 5.7368,-4.78176 4.30729,-7.45282 -1.98746,-3.7136 -6.27817,-5.01035 -16.57832,-5.01035 -8.41747,0 -9.51309,0.19161 -8.44621,1.47712 0.86688,1.04453 1.12239,5.07141 0.87245,13.75 l -0.35346,12.27288 h 3.5 3.5 z m 53.85283,11.65402 c 0.825,-0.0545 3.26294,0.24093 5.41764,0.6565 3.61,0.69624 3.85105,0.60574 3.0697,-1.15247 -1.33054,-2.99404 -1.7949,-20.08703 -0.636,-23.41144 l 1.04462,-2.99661 h -4.98316 c -4.61683,0 -4.90707,0.1422 -3.94798,1.93426 1.10803,2.07037 1.39712,15.11395 0.41607,18.77299 -0.7505,2.7992 -6.25503,4.7071 -11.5367,3.99868 -6.68104,-0.89612 -7.05462,-1.6737 -6.67758,-13.89881 l 0.33339,-10.80958 -4,2.5e-4 -4,2.6e-4 0.30844,10.25097 c 0.45843,15.23642 3.25081,18.21847 16.19156,17.29139 4.125,-0.29552 8.175,-0.58189 9,-0.63639 z m 25.16845,-11.40263 -0.33156,-12.50139 h 4.35905 c 4.75074,0 8.80406,2.17672 8.80406,4.72796 0,2.23152 -2.93897,5.27204 -5.09597,5.27204 -0.9823,0 -2.06411,0.45 -2.40403,1 -1.11315,1.80111 6.87984,1.06579 10.16072,-0.93474 5.70307,-3.47749 5.2127,-8.96672 -1.03419,-11.57684 -4.15499,-1.73606 -14.58029,-2.90699 -18.81709,-2.11346 l -3.30944,0.61984 v 13.2526 13.2526 l 4,0.59981 c 2.2,0.32989 4,0.66802 4,0.75139 0,0.0834 -0.1492,-5.47404 -0.33155,-12.34981 z m 60.16809,9.14727 c 10.27434,-6.02116 10.23203,-16.29099 -0.0921,-22.35977 -4.24247,-2.49383 -5.69662,-2.78889 -13.74443,-2.78889 -7.74365,0 -9.62277,0.34898 -13.4613,2.5 -5.08231,2.848 -9.0387,8.06372 -9.0387,11.91575 0,4.53624 4.40728,9.71067 10.23468,12.01618 7.75638,3.06868 19.67576,2.48268 26.10186,-1.28327 z m -22.5684,-1.70744 c -10.95309,-5.78313 -7.23787,-18.40331 6.0429,-20.52699 5.22977,-0.83628 12.29133,1.62915 15.17821,5.29923 2.55051,3.24245 2.57481,9.03044 0.0506,12.05701 -4.34011,5.2039 -14.5411,6.72446 -21.27172,3.17075 z m 24.23186,-59.44122 v -3.5 h -93 -93 v 3.5 3.5 h 93 93 z m -26.25869,-44.0588 c 20.35029,-3.02173 28.3236,-8.46486 31.40787,-21.4412 0.93341,-3.92709 4.79257,-67.01247 4.93981,-80.75066 0.11474,-10.70517 -1.26259,-14.53017 -7.00073,-19.4418 -5.08371,-4.35147 -11.47039,-6.33249 -20.08826,-6.23097 -12.67096,0.14925 -17.72446,4.96791 -16.6276,15.85487 0.33627,3.33771 1.27642,13.49356 2.08921,22.56856 6.61441,73.85114 6.6279,68.04821 -0.16259,69.93388 -10.42093,2.89383 -42.30679,0.21068 -59.75595,-5.02836 -47.84761,-14.36607 -76.49499,-66.60828 -66.0252,-120.40552 9.15656,-47.04938 42.10131,-72.96241 95.60712,-75.20076 12.08445,-0.50554 14.4233,-0.32751 20.68541,1.57455 4.01612,1.21986 9.08777,3.69205 11.76229,5.73356 7.81917,5.9685 10.71624,7.38499 15.11221,7.38891 7.89148,0.007 12.18659,-3.38782 10.87877,-8.5986 -1.51021,-6.01718 -17.52822,-12.72162 -38.06367,-15.9318 -15.33482,-2.39719 -40.38491,-1.58763 -56.5,1.82597 -12.49838,2.64748 -31.28464,9.55843 -41.84284,15.39284 -26.72036,14.76553 -45.89089,33.77005 -57.53294,57.03472 -10.62825,21.23876 -12.79818,42.64442 -6.72844,66.374 8.84056,34.56211 40.93526,65.93384 81.3057,79.47419 14.74788,4.94647 34.04693,9.22852 46.79852,10.3836 15.20223,1.37706 38.65189,1.13664 49.74131,-0.50998 z"
         id="path150" /><path
         style="fill:#5c6585"
         d="m 574.98712,-335.48645 v -272 h 158 158 v 272 272 h -158 -158 z m 306.5,0.5 v -262 l -147.75,-0.2533 -147.75,-0.2533 v 262.5066 262.5066 l 147.75,-0.2533 147.75,-0.2533 z m -288.5,0 v -254.5 h 140.49614 140.49615 l 0.25385,254.50001 0.25386,254.500012 -140.75,-1.1e-5 -140.75,-1.1e-5 z m 67.88332,208.07211 c 0.71215,-0.44013 1.11668,-4.65371 1.11668,-11.63113 v -10.94098 h -5.10699 c -4.50439,0 -5.01182,0.20649 -4.30043,1.75 0.44361,0.9625 0.97705,4.74597 1.18543,8.40772 0.44933,7.89587 0.37422,7.94849 -11.56961,8.10352 -9.23598,0.11989 -15.77628,-2.51708 -20.01001,-8.06778 -2.31568,-3.03602 -2.69839,-4.49576 -2.69839,-10.29229 0,-7.95758 1.77368,-11.05886 8.46064,-14.79342 5.72548,-3.1976 16.01173,-3.98664 22.61959,-1.73511 6.28714,2.14224 6.41977,2.11461 6.41977,-1.33746 0,-4.39521 -2.8053,-5.43069 -14.5,-5.35219 -13.1064,0.088 -19.90512,2.51923 -27.14694,9.70787 -8.01742,7.95853 -9.08791,15.01313 -3.69974,24.38153 2.90899,5.05786 8.03377,8.68063 16.02667,11.32946 4.87493,1.61554 7.95267,1.86635 18.95333,1.54457 7.22333,-0.21129 13.63583,-0.69473 14.25,-1.07431 z m 14.55855,-1.94772 c -0.39787,-1.58523 0.43797,-4.42438 2.51226,-8.53351 l 3.1085,-6.15791 10.69908,0.28352 10.69908,0.28351 2.74547,5.5 c 1.73638,3.47847 2.57976,6.51076 2.29461,8.25 l -0.45087,2.75 h 7.64932 7.64931 l -2.08659,-2.25 c -1.14762,-1.2375 -6.43359,-11.01809 -11.74661,-21.73465 -5.31301,-10.71656 -10.13259,-20.05406 -10.71017,-20.75 -0.62965,-0.75868 -3.41127,-1.26535 -6.94676,-1.26535 -5.7476,0 -5.88117,0.0615 -5.28576,2.4338 0.45756,1.82307 -1.57494,6.77909 -8.09961,19.75 -4.79075,9.52391 -9.80496,18.7787 -11.14268,20.5662 l -2.43223,3.25 h 6.06994 c 5.89051,0 6.05232,-0.0702 5.47371,-2.37561 z m 8.55813,-20.17149 c 0,-0.85847 8.20368,-15.5872 8.49521,-15.25215 0.14321,0.16459 1.86109,3.78675 3.81752,8.04925 l 3.55714,7.75 h -7.93494 c -4.36421,0 -7.93493,-0.2462 -7.93493,-0.5471 z m 54.55671,20.32459 c -1.26722,-1.8092 -1.55671,-5.52844 -1.55671,-20 v -17.77749 h 5.86514 c 13.71225,0 15.37481,10.32831 2.33395,14.49916 -2.9155,0.93247 -5.1655,2.06443 -5,2.51547 0.1655,0.45104 4.21828,5.07144 9.00618,10.26756 9.34903,10.14613 13.31063,12.71781 19.59138,12.71781 h 3.9944 l -10.38115,-10.25 c -5.70963,-5.6375 -10.38762,-10.76372 -10.39552,-11.39159 -0.008,-0.62788 1.07935,-1.4161 2.41613,-1.75161 1.33677,-0.33551 4.03677,-2.12493 6,-3.97649 6.00426,-5.66274 4.11246,-12.59542 -4.3624,-15.98638 -3.79604,-1.51888 -31.06811,-3.64159 -31.06811,-2.41818 0,0.2915 0.675,2.1455 1.5,4.12001 1.99211,4.76779 2.04598,32.37836 0.0739,37.90424 l -1.33827,3.75 h 7.43886 7.43887 z m 75.13869,-1.26493 c 0.91468,-1.9181 1.38755,-3.76295 1.05083,-4.09967 -0.33672,-0.33672 -2.27802,-0.0625 -4.31399,0.60947 -4.32256,1.42658 -19.2272,1.58268 -20.59418,0.2157 -0.51497,-0.51498 -0.80171,-4.04171 -0.63719,-7.83719 l 0.29913,-6.90087 6.75,0.15434 6.75,0.15435 v -2.85866 c 0,-2.83333 -0.0598,-2.86127 -6.75,-3.15434 l -6.75,-0.29569 v -6 -6 l 6.38378,-0.30119 c 3.51108,-0.16565 7.67358,0.14844 9.25,0.69798 2.79397,0.97398 2.86622,0.91225 2.86622,-2.44881 v -3.44798 h -15.7 c -12.21111,0 -15.43333,0.26667 -14.5,1.2 1.54379,1.54378 1.6913,39.01349 0.16482,41.86574 -1.00518,1.8782 -0.52646,1.93426 16.51618,1.93426 h 17.55136 z m 44.85563,0.0196 c 2.10125,-5.02901 1.86042,-5.44328 -2.30103,-3.95817 -2.0625,0.73604 -7.9125,1.35802 -13,1.38216 l -9.25,0.0439 v -17.27749 c 0,-14.01902 0.29359,-17.69666 1.55671,-19.5 l 1.5567,-2.22251 h -7.4974 -7.4974 l 1.43453,2.75 c 2.04948,3.92883 2.04784,33.87589 -0.002,38.78212 l -1.44898,3.46788 h 17.5 17.5 z m -122.80367,-65.95278 c 3.02968,-0.80654 5.48472,-1.01284 5.80901,-0.48813 0.30892,0.49983 1.99761,0.9091 3.75265,0.90948 l 3.19098,6.9e-4 v -13.99962 -13.99962 l -4.72525,-0.001 c -4.48471,-10e-4 -4.68213,0.11347 -3.87827,2.24893 0.46584,1.2375 0.5672,6.28837 0.22525,11.22415 -0.57176,8.25285 -0.82266,9.08009 -3.12173,10.29226 -1.48624,0.78361 -4.4942,1.1512 -7.41787,0.90651 -7.13816,-0.59742 -7.8114,-1.9317 -7.40357,-14.67292 l 0.33609,-10.5 h -4.03263 -4.03263 l 0.33523,10 c 0.40014,11.93604 1.37253,14.88093 5.55764,16.83118 6.19843,2.88845 8.53302,3.07761 15.4051,1.24816 z m 88.9556,-2.24267 c 7.95012,-3.77259 10.88141,-12.78146 6.12591,-18.8271 -7.7241,-9.8196 -29.7196,-9.95626 -38.66084,-0.24021 -3.26272,3.54545 -3.80921,9.3759 -1.25978,13.4403 5.14129,8.19643 22.34392,11.06076 33.79471,5.62701 z m -21.57233,-2.50102 c -7.60249,-3.76312 -8.7974,-11.28701 -2.64977,-16.6847 8.58559,-7.53825 25.51914,-2.76364 25.51914,7.1954 0,9.35832 -12.58459,14.58011 -22.86937,9.4893 z m -132.33682,-2.58565 0.29381,-7.25 h -3.37608 -3.37608 l 0.4505,5.43251 0.45051,5.4325 -3.62491,0.68004 c -1.9937,0.37402 -5.73228,0.36402 -8.30796,-0.0222 -8.9423,-1.34098 -14.13621,-10.03368 -9.74289,-16.30603 3.229,-4.61005 11.79691,-7.0054 18.55168,-5.18653 3.07797,0.82881 4.43046,0.82245 5.26482,-0.0248 3.31347,-3.3646 -9.8264,-5.39666 -18.79488,-2.9066 -9.81881,2.72614 -15.75521,9.81723 -13.6242,16.27425 0.59846,1.81334 2.3152,4.47138 3.81499,5.90676 4.91188,4.70095 8.69782,5.69597 20.72688,5.44741 l 11,-0.2273 z m 16.24138,5.81574 c -0.56936,-1.06384 -1.03519,-6.68884 -1.03519,-12.5 v -10.56574 h 4.34501 c 5.42301,0 8.44291,2.65925 6.70583,5.90501 -0.60971,1.13925 -2.33308,2.33927 -3.8297,2.66671 -5.96145,1.30424 -5.95225,1.35737 1.46189,8.44542 5.17375,4.94619 8.19386,7.05674 10.79663,7.54502 1.98748,0.37286 3.91627,0.37525 4.2862,0.005 0.36993,-0.36993 -2.45585,-3.5082 -6.2795,-6.97394 l -6.95211,-6.30133 3.20323,-1.65646 c 3.65458,-1.88985 5.62467,-4.91937 4.82909,-7.426 -1.08345,-3.41365 -4.80237,-4.62977 -15.82931,-5.17631 -9.35029,-0.46343 -10.66265,-0.33659 -10,0.96656 0.41951,0.825 0.76274,7.23766 0.76274,14.25035 v 12.75034 l 4.28519,-3.4e-4 c 3.92671,-3.2e-4 4.19858,-0.16216 3.25,-1.93461 z m 78.11198,-10.5655 -0.35282,-12.50024 h 4.38032 c 9.05342,0 11.69994,5.8127 4.32533,9.5 l -4,2 3.73924,0.30972 c 4.70367,0.38961 8.74101,-1.51193 10.72443,-5.05109 3.28091,-5.85434 -2.8866,-9.72253 -16.71808,-10.48539 l -9.74559,-0.5375 v 14.63132 14.63133 l 4,0.001 4,0.001 z m 61.85283,-52.00024 v -3.5 h -93.5 -93.5 v 3.5 3.5 h 93.5 93.5 z m -26,-43.96184 c 9.95159,-1.51899 17.91421,-3.83862 21.80661,-6.35259 3.18245,-2.05545 7.74356,-8.92125 9.10444,-13.70483 1.59392,-5.60277 6.13282,-86.35238 5.10899,-90.89191 -1.51546,-6.71932 -5.49199,-11.25871 -13.02004,-14.86295 -3.5171,-1.68389 -6.35659,-2.15458 -13,-2.15492 -9.86382,-5.1e-4 -14.04027,1.67245 -16.61763,6.65651 -1.53348,2.96544 -1.53489,4.48246 -0.0197,21.23307 7.03409,77.76309 6.89328,75.59917 5.05205,77.63371 -2.62388,2.89936 -7.83089,3.89409 -20.41471,3.89998 -12.25206,0.006 -30.58737,-2.55582 -42.5,-5.9375 -8.64243,-2.45336 -23.00087,-9.78629 -30.57639,-15.61551 -16.59092,-12.76643 -29.19503,-32.54362 -35.39077,-55.53195 -2.6216,-9.727 -3.24631,-36.83494 -1.11043,-48.18415 5.89866,-31.34307 22.08073,-53.77121 47.15503,-65.35625 15.20239,-7.02393 40.19993,-11.90459 57.30192,-11.18795 10.98828,0.46046 15.9876,2.31042 27.43385,10.15168 6.00386,4.11296 7.44303,4.6674 12.11514,4.6674 9.68171,0 13.83196,-6.50452 7.82165,-12.25857 -12.01232,-11.50017 -52.4719,-16.9954 -85.67148,-11.63592 -33.63423,5.42964 -67.22138,23.6259 -88.67465,48.0406 -8.95229,10.18808 -13.99025,17.82115 -18.77254,28.44247 -11.73251,26.05759 -11.62496,53.53685 0.30884,78.91142 13.99222,29.75131 42.1276,53.22981 77.89025,64.99808 12.37563,4.0724 34.81001,8.87591 45.66958,9.77849 12.31044,1.02317 40.21389,0.60267 49,-0.73841 z"
         id="path149" /><path
         style="fill:#3b4971"
         d="m 575.98712,-335.48645 v -272 h 157 157 v 272 272 h -157 -157 z m 306,0.5 v -262.5 h -148 -148 v 262.5 262.5 h 148 148 z m -288.24614,10e-6 0.25386,-254.50001 h 139.99614 139.99614 v 254.5 254.5 l -140.25,1.1e-5 -140.25,1.1e-5 z m 66.99614,208.16746 c 0.88139,-0.55387 1.25,-4.1593 1.25,-12.22649 v -11.44098 h -4.83333 c -2.65834,0 -5.09015,0.25681 -5.40402,0.57069 -0.31388,0.31388 0.0583,1.77638 0.82717,3.25 0.76882,1.47362 1.40063,5.21056 1.40402,8.30431 0.006,5.50175 -0.0623,5.63869 -3.11884,6.25 -1.71875,0.34375 -6.16736,0.625 -9.88581,0.625 -16.64241,0 -26.40741,-12.8677 -19.73919,-26.01107 4.10048,-8.08223 17.72809,-12.22881 28.32409,-8.61838 6.80599,2.31903 7.42591,2.16446 7.42591,-1.8515 0,-4.29663 -1.76395,-4.92411 -14,-4.98013 -15.96983,-0.0731 -27.44832,5.54629 -32.52519,15.92304 -2.27581,4.65159 -2.62998,6.38932 -2.09608,10.2845 1.20801,8.81339 7.47194,15.4467 18.12127,19.18988 5.1816,1.8213 7.84141,2.06857 19.5,1.8128 7.425,-0.16289 14.0625,-0.64964 14.75,-1.08167 z m 15.24082,-1.17854 c -1.01469,-1.22262 -0.93104,-2.35693 0.4382,-5.94225 0.93076,-2.43715 2.59765,-5.58216 3.70421,-6.98893 1.91702,-2.43708 2.48072,-2.55775 11.94869,-2.55775 h 9.93675 l 3.21673,6.52319 c 2.72924,5.5346 3.02964,6.82277 1.98219,8.5 -1.19194,1.90861 -0.95222,1.97681 6.94825,1.97681 h 8.18279 l -2.09582,-2.25 c -1.1527,-1.2375 -6.62788,-11.5875 -12.16708,-23 l -10.07126,-20.75 h -6.52629 c -6.37546,0 -6.51247,0.055 -5.92855,2.38154 0.44045,1.75492 -1.69765,6.9515 -8.12603,19.75 -4.79807,9.55265 -9.80637,18.83096 -11.12957,20.61846 l -2.40581,3.25 h 6.67334 c 5.84019,0 6.51676,-0.18865 5.41926,-1.51107 z m 11.73665,-27.98893 c 2.04111,-4.125 4.00217,-7.5 4.35793,-7.5 0.57767,0 6.9146,13.29668 6.9146,14.5088 0,0.27016 -3.37131,0.4912 -7.49181,0.4912 h -7.49182 z m 50.71939,26.75 c -1.08461,-2.0792 -1.43604,-6.98618 -1.4407,-20.1165 l -0.006,-17.36649 6.4434,0.41028 c 7.04111,0.44835 10.5566,2.53141 10.5566,6.25519 0,3.81653 -2.69821,6.21929 -8.9557,7.97505 -3.32436,0.93277 -6.0443,1.84106 -6.0443,2.01841 0,1.08935 19.89141,20.98366 22.14667,22.1499 1.51471,0.78329 4.90422,1.42416 7.53225,1.42416 h 4.77825 l -6.13545,-5.75 c -3.3745,-3.1625 -8.23825,-8.08504 -10.80835,-10.93898 l -4.6729,-5.18898 3.98524,-2.03312 c 7.68993,-3.92311 10.22781,-10.20858 6.19301,-15.33799 -3.47721,-4.42056 -9.17827,-5.94158 -24.42739,-6.51712 l -13.90866,-0.52496 1.65866,2.36808 c 2.47241,3.52985 2.47554,39.36296 0.004,42.09433 -1.59037,1.75735 -1.33892,1.82874 6.4407,1.82874 h 8.09569 z m 75.48997,-1.12618 c 1.08762,-2.1319 1.75541,-4.09825 1.48399,-4.36967 -0.27142,-0.27142 -2.16464,0.10311 -4.20716,0.83229 -2.04251,0.72917 -7.65116,1.34553 -12.46366,1.36967 l -8.75,0.0439 v -8.12921 -8.12921 l 7.06838,0.6965 7.06838,0.6965 -0.31838,-3.31729 -0.31838,-3.31729 -6.79851,-0.2968 -6.7985,-0.29679 0.2985,-5.70321 0.29851,-5.7032 5.87663,-0.30368 c 3.23215,-0.16703 7.16965,0.14706 8.75,0.69798 2.8026,0.97699 2.87337,0.91674 2.87337,-2.44632 v -3.44798 h -15.53518 c -15.2568,0 -15.51589,0.0361 -14.45827,2.01224 1.27593,2.3841 0.95719,38.54079 -0.36354,41.23776 -0.7996,1.63281 0.32067,1.75 16.72968,1.75 h 17.58666 z m 45.11261,-0.22073 c 2.39133,-4.6874 2.10228,-5.59374 -1.21379,-3.80582 -1.28461,0.69261 -7.17315,1.46188 -13.08565,1.70947 l -10.75,0.45016 0.006,-16.87845 c 0.005,-12.70636 0.36076,-17.55821 1.4407,-19.62845 l 1.43454,-2.75 h -7.47589 c -7.46689,0 -7.47433,0.003 -6.19069,2.25 0.91598,1.60362 1.28518,7.421 1.28518,20.25 0,12.829 -0.3692,18.64637 -1.28518,20.25 l -1.28519,2.25 h 17.51486 17.51486 z m -122.70837,-65.30522 c 2.56241,-0.77117 4.65893,-0.99617 4.65893,-0.5 0,0.49617 2.0801,0.90213 4.62245,0.90213 3.92377,0 4.44062,-0.21908 3.41952,-1.44943 -0.84187,-1.0144 -1.10373,-5.36683 -0.87244,-14.50141 l 0.33047,-13.05199 -4.5,1.2e-4 -4.5,1.2e-4 v 11.7513 11.75129 l -4.15549,1.4366 c -5.38108,1.86031 -11.79299,0.25062 -12.7157,-3.19224 -0.9921,-3.7018 -0.70515,-18.57915 0.37119,-19.24436 2.4098,-1.48934 0.59061,-2.5 -4.5,-2.5 -5.09061,0 -6.9098,1.01066 -4.5,2.5 0.5532,0.3419 1,4.86563 1,10.12476 0,5.2287 0.48631,10.4154 1.08068,11.526 1.34645,2.51585 8.39283,5.79802 12.51039,5.82728 1.70009,0.0121 5.18759,-0.609 7.75,-1.38017 z m 84.8189,-0.64095 c 4.97266,-1.33899 10.41262,-6.13183 11.82823,-10.42115 2.33177,-7.06535 -4.77553,-15.25213 -15.17779,-17.48301 -13.29306,-2.85085 -28.81041,5.0786 -28.81041,14.72228 0,7.00831 5.51721,11.60968 17.5,14.59504 2.52249,0.62845 9.61818,-0.0555 14.65997,-1.41316 z m -15.55565,-2.99535 c -1.59262,-0.47659 -4.18012,-2.0971 -5.75,-3.60114 -3.57439,-3.42448 -3.87745,-8.79001 -0.723,-12.80025 2.72969,-3.47023 6.05204,-4.70185 12.6852,-4.70251 8.04447,-8e-4 14.11796,4.6378 14.16125,10.8156 0.0545,7.77163 -10.67586,13.19028 -20.37345,10.2883 z m -134.10432,-3.46157 v -7 l -3.58647,-0.30062 -3.58647,-0.30061 0.44948,5.42012 0.44948,5.42013 -4.36301,0.61842 c -8.84207,1.25328 -16.69528,-2.41976 -18.24825,-8.53494 -2.36133,-9.29823 7.43354,-15.03937 21.21815,-12.43677 4.16552,0.78648 4.32004,0.72723 4,-1.53383 -0.32438,-2.29162 -0.59123,-2.3519 -10.41225,-2.3519 -9.46396,0 -10.3768,0.18394 -14.95138,3.01272 -9.21407,5.6977 -10.74637,13.14352 -4.07729,19.8126 4.58882,4.58883 8.38148,5.52575 21.60801,5.33796 l 11.5,-0.16328 z m 15.47525,4.9349 c -0.53639,-1.4108 -0.97525,-7.0358 -0.97525,-12.5 v -9.9349 h 3.56574 c 4.76421,0 7.43426,1.57118 7.43426,4.37467 0,2.41589 -3.36626,4.62533 -7.04705,4.62533 -1.07412,0 -1.95295,0.3505 -1.95295,0.77889 0,1.14852 12.13891,12.81118 14.68426,14.10814 2.60133,1.32548 7.31574,1.47698 7.31574,0.23509 0,-0.48283 -2.98887,-3.50196 -6.64194,-6.70918 -5.85878,-5.14372 -6.43136,-5.95402 -4.85604,-6.87212 5.0549,-2.94601 6.80418,-5.18468 6.13492,-7.85125 -1.0012,-3.98909 -5.4075,-5.69825 -16.42235,-6.37006 l -9.71459,-0.5925 v 14.63548 14.63548 l 4.72525,0.001 c 4.65918,0.001 4.71161,-0.0349 3.75,-2.56408 z m 79.05994,0.63084 c -0.56936,-1.06384 -1.03519,-6.68884 -1.03519,-12.5 v -10.56574 l 3.75,0.0147 c 5.27706,0.0207 8.75,1.99594 8.75,4.97645 0,2.34163 -1.45335,3.52023 -7,5.67666 -1.47094,0.57188 -0.6963,0.86734 2.92837,1.11693 7.16597,0.49345 12.53407,-3.814 11.22972,-9.01092 -1.00717,-4.0129 -6.62005,-6.10394 -17.65809,-6.57838 l -9.5,-0.40833 0.34952,12.48621 c 0.22547,8.0548 -0.0532,13.23869 -0.78518,14.60643 -1.09303,2.04233 -0.9301,2.12021 4.43566,2.12021 5.19738,0 5.50105,-0.12952 4.53519,-1.93426 z m 61.96481,-62.56574 v -3.5 h -94 -94 v 3.5 3.5 h 94 94 z m -17.56921,-45.40577 c 4.36193,-1.16671 9.30534,-2.92408 10.98535,-3.90526 3.97567,-2.32192 9.22113,-9.25187 10.56988,-13.96423 1.17469,-4.10424 4.8777,-60.58725 5.26761,-80.34848 0.24361,-12.34625 0.21232,-12.54174 -2.78694,-17.41601 -2.33127,-3.78869 -4.39788,-5.62748 -8.92929,-7.94493 -5.20239,-2.6606 -6.90424,-3.01532 -14.46669,-3.01532 -9.79437,0 -14.54039,1.96879 -16.99604,7.05045 -1.53805,3.18281 -1.22522,8.07923 4.46755,69.92601 2.12793,23.11804 2.22826,26.22489 0.91176,28.23412 -2.14474,3.27329 -5.22642,3.79654 -21.95398,3.72763 -37.82199,-0.15582 -66.30038,-11.74097 -85.73048,-34.87561 -14.89868,-17.73925 -22.45357,-38.05806 -23.4763,-63.13924 -0.71101,-17.43667 0.58606,-27.15306 5.66923,-42.46845 8.11439,-24.44832 22.87031,-40.96694 45.09152,-50.47801 11.41128,-4.88423 31.53209,-9.24254 46.54992,-10.08305 10.67495,-0.59744 12.92432,-0.42821 19.05351,1.43347 3.8223,1.16099 8.95055,3.49899 11.39612,5.19555 2.44556,1.69657 6.13775,4.24777 8.20485,5.66933 5.25898,3.61663 13.53981,3.78548 17.19604,0.35063 4.82492,-4.53277 3.02406,-9.7532 -4.71784,-13.67632 -23.05257,-11.68162 -62.16399,-14.06129 -94.94283,-5.77664 -23.54632,5.95118 -48.68893,20.00747 -67.31019,37.63058 -16.39507,15.51626 -27.92457,34.41934 -32.7464,53.68902 -4.5226,18.07388 -2.2911,42.29599 5.48986,59.59053 10.71256,23.81049 32.75864,45.95075 58.77299,59.02405 11.31544,5.68648 31.88367,12.22683 47,14.9452 18.5894,3.34292 18.52519,3.33866 45.5,3.02518 20.72065,-0.24079 25.08366,-0.56875 31.93079,-2.4002 z"
         id="path148" /><path
         style="fill:#192958"
         d="m 575.98712,-335.48645 v -272 h 157 157 v 272 272 h -157 -157 z m 306,0.5 v -262.5 h -148.5 -148.5 v 262.5 262.5 h 148.5 148.5 z m -288,0.25 v -254.25 h 140 140 v 254.25 254.25 h -140 -140 z m 64,208.40748 3.5,-0.73622 0.28174,-11.71063 0.28173,-11.71063 h -5.53173 c -5.53364,0 -6.52035,0.61139 -4.40334,2.7284 0.62062,0.62061 1.35122,4.24271 1.62357,8.0491 l 0.49517,6.92071 -3.87357,0.63989 c -11.88969,1.9641 -21.28515,-0.28407 -26.82815,-6.41951 -3.30935,-3.66305 -3.54542,-4.36575 -3.54542,-10.55344 0,-8.65003 2.18662,-12.33877 9.06939,-15.29965 8.89316,-3.82574 16.56614,-3.65965 26.68061,0.57751 0.88086,0.36901 1.25,-0.67659 1.25,-3.54062 0,-3.58066 -0.32723,-4.1558 -2.75,-4.83334 -1.5125,-0.42298 -7.25,-0.72713 -12.75,-0.67589 -7.70517,0.0718 -11.28036,0.58995 -15.57935,2.258 -13.82557,5.36446 -21.01679,17.80296 -16.51782,28.57052 3.53107,8.45103 12.18912,14.30099 24.59717,16.61949 4.68922,0.87621 17.95562,0.38773 24,-0.88369 z m 154.80071,-1.90748 c 1.0653,-1.5125 2.27287,-3.83057 2.6835,-5.15127 0.62713,-2.01705 0.46751,-2.29418 -0.99756,-1.73198 -4.90099,1.88068 -10.68275,2.71009 -16.98665,2.43676 l -7,-0.30351 -0.29569,-7.34341 -0.2957,-7.34342 6.7957,0.34342 6.79569,0.34341 v -3.5 -3.5 l -6.75,-0.29569 -6.75,-0.29569 v -5.43526 c 0,-4.99439 0.20718,-5.48725 2.55423,-6.07633 2.67306,-0.67089 10.2976,-0.0491 14.26416,1.16336 2.18006,0.66636 2.29938,0.47687 2,-3.17588 l -0.31839,-3.88451 -16.28858,-0.27496 -16.28859,-0.27495 1.5997,3.09348 c 1.34068,2.59259 1.53744,6.03739 1.2152,21.27495 -0.21148,9.99982 -0.74147,19.19398 -1.17775,20.43148 l -0.79324,2.25 h 17.04854 17.04853 z m 42.92897,1.77309 c 1.38074,-0.0259 5.72498,-7.90177 4.84431,-8.78244 -0.31105,-0.31104 -1.80494,0.004 -3.31976,0.69987 -3.29083,1.51195 -16.94084,2.60594 -20.71035,1.65985 l -2.67197,-0.67062 0.31405,-17.36277 c 0.27867,-15.40734 0.52858,-17.5995 2.21903,-19.46487 l 1.90499,-2.10211 h -8.26198 c -7.52835,0 -8.18588,0.15539 -7.40499,1.75 1.29413,2.64266 1.65573,40.35126 0.39899,41.608 -3.12857,3.12858 -1.04477,3.29847 32.68768,2.66509 z m -178.72968,-0.82309 c 0,-0.44 -0.48637,-1.28638 -1.08083,-1.88084 -0.77445,-0.77444 -0.26095,-2.74458 1.81147,-6.95 l 2.89231,-5.86916 10.9527,-0.28055 10.95269,-0.28054 2.84958,6.54102 c 2.31363,5.31078 2.61707,6.82118 1.61338,8.03055 -1.07892,1.30002 -0.12514,1.48952 7.49704,1.48952 8.43962,0 8.6636,-0.0588 6.66231,-1.75 -1.139,-0.9625 -5.91886,-9.625 -10.6219,-19.25 -4.70304,-9.625 -9.33348,-19.075 -10.28987,-21 -1.70564,-3.4331 -1.86948,-3.50569 -8.57136,-3.79757 -6.60303,-0.28758 -6.80947,-0.22504 -6.14703,1.86213 0.50642,1.59558 -1.75755,6.98916 -8.66751,20.64908 -5.14414,10.16917 -10.42684,19.56871 -11.73934,20.88787 l -2.38637,2.39849 h 7.13637 c 3.925,0 7.13636,-0.36 7.13636,-0.8 z m 8.60472,-24.45 c 0.91084,-1.7875 2.80633,-5.23277 4.21221,-7.65615 l 2.55613,-4.40615 3.31347,7.28625 c 1.82241,4.00744 3.31347,7.45271 3.31347,7.65615 0,0.20345 -3.38655,0.3699 -7.52568,0.3699 h -7.52568 z m 54.36348,24.5 c -0.0175,-0.4125 -0.69249,-1.62351 -1.5,-2.69113 -1.15962,-1.53315 -1.4682,-5.57905 -1.4682,-19.25 v -17.30887 h 5.04966 c 2.77731,0 6.402,0.69932 8.05486,1.55405 2.71293,1.40291 2.97555,1.96212 2.70034,5.75 -0.30454,4.19157 -0.3114,4.19814 -6.56996,6.29439 -3.44581,1.15414 -6.53707,2.3704 -6.86947,2.7028 -0.3324,0.3324 2.61214,3.91866 6.54341,7.96947 3.93128,4.05081 7.83977,8.35307 8.68555,9.56059 2.3667,3.37893 8.7355,6.1687 14.08262,6.1687 h 4.75668 l -10.46685,-10.53449 c -5.75676,-5.79397 -10.64175,-10.73138 -10.85553,-10.97202 -0.21378,-0.24064 0.74873,-0.86998 2.13891,-1.39852 1.39018,-0.52855 4.15259,-2.38776 6.13869,-4.13157 2.92927,-2.57194 3.61109,-3.87095 3.61109,-6.8799 0,-4.15666 -3.26821,-8.06233 -8.5,-10.1579 -3.24576,-1.30008 -31.5,-2.62769 -31.5,-1.48012 0,0.38356 0.675,1.37238 1.5,2.19738 2.33704,2.33704 2.20049,38.92563 -0.15499,41.5284 -1.59047,1.75745 -1.33707,1.82874 6.5,1.82874 4.48525,0 8.14068,-0.3375 8.12319,-0.75 z m -69.2182,-68.7938 c 0.84418,-0.2657 1.25,-2.6762 1.25,-7.42482 v -7.03138 h -4.5 c -4.22595,0 -5.76562,1.09977 -3.5,2.5 0.55,0.33992 1,2.39148 1,4.55902 v 3.94098 l -7.25,-0.004 c -8.87192,-0.005 -12.96215,-2.07902 -14.74386,-7.47768 -1.57153,-4.76177 0.0157,-8.75094 4.61228,-11.59177 2.77731,-1.71647 4.59165,-2.02238 10.13234,-1.70841 3.71208,0.21035 7.53674,0.74541 8.49924,1.18902 1.41982,0.65438 1.75,0.32582 1.75,-1.74141 0,-1.40139 -0.445,-2.823 -0.98889,-3.15915 -0.5439,-0.33614 -4.56554,-0.65761 -8.93698,-0.71437 -6.89305,-0.0895 -8.71969,0.28245 -13.7611,2.80215 -6.29542,3.14646 -10.31303,7.94635 -10.31303,12.32111 0,1.44099 1.13791,4.29456 2.52868,6.34127 4.4368,6.52933 11.73283,8.89056 24.97132,8.08151 4.4,-0.2689 8.5625,-0.66595 9.25,-0.88233 z m 72.57108,0.47509 c 6.53961,0.19448 6.77688,0.12026 5.75,-1.79848 -1.37222,-2.56401 -1.40083,-22.64815 -0.0359,-25.19855 0.97061,-1.81361 0.65653,-1.93426 -5.03519,-1.93426 -5.69172,0 -6.00579,0.12065 -5.03518,1.93426 0.56935,1.06384 1.03518,6.2618 1.03518,11.55102 v 9.61677 l -3.70462,1.54789 c -5.02227,2.09844 -11.22283,0.83823 -13.03837,-2.64994 -1.41005,-2.70911 -1.31124,-17.14991 0.13856,-20.25 0.72861,-1.55798 0.19142,-1.75 -4.89557,-1.75 -5.08136,0 -5.625,0.19375 -4.91035,1.75 0.442,0.9625 1.05265,6.34824 1.35699,11.96832 0.4308,7.95503 0.94811,10.61295 2.33557,12 3.03959,3.03869 7.79258,4.29615 13.71779,3.62921 3.025,-0.34049 8.56949,-0.5278 12.32108,-0.41624 z m 78.76362,-0.91688 c 4.69524,-1.33224 10.71143,-7.41076 11.50114,-11.6203 1.69068,-9.01207 -8.74562,-16.96048 -22.08584,-16.82084 -13.12698,0.13741 -22.5,6.67668 -22.5,15.69759 0,3.02952 0.76551,4.61328 3.75,7.75832 6.06623,6.39256 17.51673,8.3385 29.3347,4.98523 z m -16.5847,-3.51735 c -5.15737,-1.82461 -8.5,-5.69039 -8.5,-9.83032 0,-6.73521 5.49486,-10.66674 14.90823,-10.66674 5.60102,0 6.28109,0.26021 10.04966,3.84516 3.09578,2.94494 4.04211,4.60178 4.04211,7.07693 0,4.1108 -4.19843,8.48423 -9.5788,9.97806 -4.94764,1.37368 -6.00988,1.33448 -10.9212,-0.40309 z m -118.30715,-7.99524 -0.30715,-12.50182 h 3.12289 c 4.09711,0 6.99141,1.61979 6.99141,3.91274 0,2.38232 -1.90854,3.91897 -5.84531,4.70632 -1.73508,0.34702 -3.15032,1.13719 -3.14499,1.75594 0.005,0.61875 3.1873,3.99638 7.07103,7.50584 6.16621,5.57199 7.65445,6.43445 11.7403,6.80372 l 4.67897,0.42287 -7.17493,-6.80372 -7.17494,-6.80371 3.98795,-2.78536 c 3.20795,-2.24057 3.92672,-3.30674 3.67493,-5.4511 -0.52648,-4.48376 -5.64303,-6.64577 -16.78844,-7.09401 l -9.52457,-0.38305 v 14.60595 14.60596 l 4.5,0.003 4.5,0.003 z m 78.9756,-4.3e-4 -0.33156,-12.50139 h 3.0345 c 4.99721,0 8.12861,1.94126 8.12861,5.03919 0,2.67923 -0.78801,3.25918 -7.25,5.33569 -3.86252,1.24119 -1.57017,2.51059 3.5,1.93813 8.98404,-1.01436 12.66223,-4.18324 11.58856,-9.98392 -0.65376,-3.53201 -7.48896,-5.80082 -18.58856,-6.17012 -6.5989,-0.21955 -10.25,0.0266 -10.25,0.69099 0,0.5676 0.45,1.31012 1,1.65004 1.32951,0.82168 1.29908,22.07266 -0.0352,24.56574 -0.96273,1.79887 -0.66525,1.93436 4.25,1.93565 l 5.28518,0.001 z m 61.64192,-51.75139 0.31036,-3.75 h -94.06036 -94.06037 v 3.33333 c 0,1.83334 0.30231,3.63564 0.67179,4.00513 0.36949,0.36948 42.55699,0.55698 93.75,0.41666 l 93.07821,-0.25512 z m -38.61116,-42.73761 c 6.98457,-0.51111 16.84907,-1.90355 21.92111,-3.09432 8.5216,-2.00064 9.59266,-2.53581 14.10426,-7.04741 2.6853,-2.6853 5.57979,-6.55153 6.43219,-8.59163 2.33288,-5.58336 7.10808,-89.78283 5.41276,-95.44131 -1.75157,-5.84622 -8.64643,-12.33762 -15.15849,-14.2715 -11.54363,-3.42809 -24.50173,-1.1922 -27.57907,4.75871 -1.9301,3.73241 -1.61034,10.35894 2.75901,57.17507 3.95107,42.33431 3.92257,41.25888 1.15289,43.50272 -2.88145,2.33439 -14.49406,3.48815 -26.70301,2.65305 -36.95118,-2.5275 -62.95819,-14.42538 -81.21702,-37.15577 -9.00294,-11.20776 -16.30365,-26.65001 -19.85654,-42 -2.09117,-9.03479 -2.85102,-28.55713 -1.55367,-39.91779 2.173,-19.02855 11.6088,-41.00156 22.6893,-52.83623 6.13652,-6.55419 14.99005,-13.09516 23.39707,-17.2857 15.8819,-7.91646 50.79103,-14.11996 65.18743,-11.58409 6.81605,1.20063 14.06071,4.60246 20.73776,9.7377 7.75054,5.96087 16.84554,6.70629 21.76775,1.78408 6.33635,-6.33635 -1.69356,-13.60305 -21.19294,-19.17865 -16.89583,-4.83116 -43.26915,-6.00551 -64.5,-2.87207 -25.03814,3.69536 -55.18767,17.10384 -74.38978,33.08355 -15.34969,12.77379 -28.09609,28.86844 -34.90126,44.0692 -5.22371,11.66824 -5.50524,12.56921 -7.18036,22.97912 -4.12569,25.63875 1.10625,49.16896 15.76694,70.91057 5.40336,8.01311 23.40421,25.95705 32.02033,31.91908 23.38437,16.18114 56.62092,26.56449 91.68413,28.64284 6.875,0.40751 13.4,0.79698 14.5,0.86549 1.1,0.0685 7.71465,-0.29361 14.69921,-0.80471 z"
         id="path147" /><path
         style="fill:#03174f"
         d="m 654.23712,-64.236363 c 43.3125,-0.144211 114.1875,-0.144211 157.5,0 43.3125,0.144212 7.875,0.262203 -78.75,0.262203 -86.625,0 -122.0625,-0.117991 -78.75,-0.262203 z m 5.57843,-8.00001 c 40.88063,-0.144612 107.48063,-0.144593 148,4.3e-5 40.51936,0.144636 7.07157,0.262956 -74.32843,0.262932 -81.4,-2.3e-5 -114.55221,-0.118362 -73.67157,-0.262975 z m 73.41963,-9.000049 139.74806,-0.256996 0.25389,-253.746512 0.25389,-253.74652 0.24805,254.25 0.24805,254.25 -140.25,-0.246488 -140.25,-0.246488 z m -99.49806,-43.912308 c 0.6875,-0.27741 1.8125,-0.27741 2.5,0 0.6875,0.27741 0.125,0.50439 -1.25,0.50439 -1.375,0 -1.9375,-0.22698 -1.25,-0.50439 z m 17,0 c 0.6875,-0.27741 1.8125,-0.27741 2.5,0 0.6875,0.27741 0.125,0.50439 -1.25,0.50439 -1.375,0 -1.9375,-0.22698 -1.25,-0.50439 z m -21.9375,-1.02083 c 0.72188,-0.28887 1.58438,-0.25335 1.91667,0.0789 0.33229,0.33229 -0.25834,0.56864 -1.3125,0.52522 -1.16494,-0.048 -1.4019,-0.28494 -0.60417,-0.60416 z m 28.9375,0.0208 c 0.6875,-0.27741 1.8125,-0.27741 2.5,0 0.6875,0.27741 0.125,0.50439 -1.25,0.50439 -1.375,0 -1.9375,-0.22698 -1.25,-0.50439 z m 9,-0.0611 c 1.7875,-0.22182 4.7125,-0.22182 6.5,0 1.7875,0.22183 0.325,0.40333 -3.25,0.40333 -3.575,0 -5.0375,-0.1815 -3.25,-0.40333 z m 44.02643,-0.0101 c 2.35204,-0.21124 5.95204,-0.20827 8,0.007 2.04797,0.21487 0.12357,0.38771 -4.27643,0.38408 -4.4,-0.004 -6.0756,-0.17944 -3.72357,-0.39069 z m 18,0 c 2.35204,-0.21124 5.95204,-0.20827 8,0.007 2.04797,0.21487 0.12357,0.38771 -4.27643,0.38408 -4.4,-0.004 -6.0756,-0.17944 -3.72357,-0.39069 z m 37.48732,0.0159 c 1.52006,-0.22986 3.77006,-0.22371 5,0.0136 1.22994,0.23736 -0.0137,0.42542 -2.76375,0.41792 -2.75,-0.008 -3.75631,-0.20172 -2.23625,-0.43157 z m 66.98625,-0.0214 c 3.1625,-0.19845 8.3375,-0.19845 11.5,0 3.1625,0.19845 0.575,0.36082 -5.75,0.36082 -6.325,0 -8.9125,-0.16237 -5.75,-0.36082 z m -73.25,-1.26101 c -0.90129,-0.58246 -1.02463,-0.97549 -0.30902,-0.98469 0.65505,-0.008 1.4691,0.43469 1.80902,0.98469 0.76731,1.24152 0.42112,1.24152 -1.5,0 z m -97.62183,-11 c 0,-6.325 0.16237,-8.9125 0.36082,-5.75 0.19845,3.1625 0.19845,8.3375 0,11.5 -0.19845,3.1625 -0.36082,0.575 -0.36082,-5.75 z m 44.70078,8.41667 c 0.048,-1.16495 0.28494,-1.4019 0.60417,-0.60417 0.28887,0.72187 0.25334,1.58437 -0.079,1.91667 -0.33229,0.33229 -0.56864,-0.25834 -0.52522,-1.3125 z m 62.7935,-0.16667 c -1.24387,-1.58606 -1.2085,-1.62143 0.37755,-0.37756 1.66575,1.30637 2.19548,2.12756 1.37245,2.12756 -0.20766,0 -0.99516,-0.7875 -1.75,-1.75 z m 52.85876,-0.33016 c 0.35361,-1.3522 0.80691,-1.8055 1.05656,-1.05655 0.24048,0.72144 -0.0382,1.78716 -0.61932,2.36826 -0.74207,0.74207 -0.87221,0.35164 -0.43724,-1.31171 z m -96.57331,-1.91984 c 0,-1.375 0.22697,-1.9375 0.50438,-1.25 0.27741,0.6875 0.27741,1.8125 0,2.5 -0.27741,0.6875 -0.50438,0.125 -0.50438,-1.25 z m -90.3454,0.31689 c 0.72188,-0.28887 1.58438,-0.25335 1.91667,0.0789 0.33229,0.33229 -0.25834,0.56864 -1.3125,0.52522 -1.16494,-0.048 -1.4019,-0.28494 -0.60417,-0.60416 z m 8.4375,-0.006 c 0.9625,-0.25152 2.5375,-0.25152 3.5,0 0.9625,0.25153 0.175,0.45733 -1.75,0.45733 -1.925,0 -2.7125,-0.2058 -1.75,-0.45733 z m 92.97413,-17.06067 -0.22413,-17.25 5.25,0.18025 5.25,0.18025 -4.72606,0.37356 -4.72607,0.37357 -0.29981,16.69618 -0.29981,16.69619 z m 41.18505,0.25 c -10e-4,-9.35 0.14916,-13.3096 0.33402,-8.7991 0.18485,4.51049 0.18579,12.16049 0.002,17 -0.18371,4.8395 -0.33496,1.1491 -0.33611,-8.2009 z m 14.84082,15.81067 c 0.9625,-0.25152 2.5375,-0.25152 3.5,0 0.9625,0.25153 0.175,0.45733 -1.75,0.45733 -1.925,0 -2.7125,-0.2058 -1.75,-0.45733 z m 8,0 c 0.9625,-0.25152 2.5375,-0.25152 3.5,0 0.9625,0.25153 0.175,0.45733 -1.75,0.45733 -1.925,0 -2.7125,-0.2058 -1.75,-0.45733 z m 38.4777,-0.0324 c 1.77523,-0.22091 4.92523,-0.22454 7,-0.008 2.07476,0.21648 0.6223,0.39722 -3.2277,0.40166 -3.85,0.004 -5.54754,-0.17268 -3.7723,-0.39359 z m -5.32061,-16.27827 c 0,-9.075 0.15161,-12.7875 0.3369,-8.25 0.18529,4.5375 0.18529,11.9625 0,16.5 -0.18529,4.5375 -0.3369,0.825 -0.3369,-8.25 z m -211.40338,10.50394 c -1.28971,-1.37283 -2.15565,-2.66353 -1.92432,-2.86821 0.23134,-0.20469 1.46734,0.91853 2.74667,2.49605 2.86299,3.5303 2.35888,3.75843 -0.82235,0.37216 z m -13.54483,-0.57047 c -0.36253,-0.58659 -0.44468,-1.281 -0.18255,-1.54313 0.26213,-0.26213 0.74306,0.21781 1.06875,1.06653 0.67618,1.76211 0.0999,2.07206 -0.8862,0.4766 z m 102,-5 c -0.36253,-0.58659 -0.44468,-1.281 -0.18255,-1.54313 0.26213,-0.26213 0.74306,0.21781 1.06875,1.06653 0.67618,1.76211 0.0999,2.07206 -0.8862,0.4766 z m 41.41357,-2.68347 c -1.24387,-1.58606 -1.2085,-1.62143 0.37755,-0.37756 0.9625,0.75485 1.75,1.54235 1.75,1.75 0,0.82304 -0.82118,0.29331 -2.12755,-1.37244 z m -145.6775,-1.75 c 0.0204,-1.65 0.2445,-2.20394 0.49804,-1.23097 0.25355,0.97297 0.23687,2.32297 -0.0371,3 -0.27392,0.67703 -0.48137,-0.11903 -0.46099,-1.76903 z m 81.05505,-0.22847 c 2.0625,-0.21574 5.4375,-0.21574 7.5,0 2.0625,0.21575 0.375,0.39226 -3.75,0.39226 -4.125,0 -5.8125,-0.17651 -3.75,-0.39226 z m 71.25,-3.27153 c 0.99549,-1.1 2.03498,-2 2.30998,-2 0.275,0 -0.31449,0.9 -1.30998,2 -0.99548,1.1 -2.03497,2 -2.30997,2 -0.275,0 0.31449,-0.9 1.30997,-2 z m -72.5,-2 c 0.5887,-1.1 1.29537,-2 1.57037,-2 0.275,0 0.0183,0.9 -0.57037,2 -0.5887,1.1 -1.29537,2 -1.57037,2 -0.275,0 -0.0183,-0.9 0.57037,-2 z m -66,-2.94098 c 0,-0.51754 0.44485,-1.21592 0.98855,-1.55194 0.56686,-0.35034 0.7345,0.0511 0.39301,0.94098 -0.66479,1.73242 -1.38156,2.04939 -1.38156,0.61096 z m 71.25996,-3.60702 c -0.68203,-0.74045 -0.84168,-1.59248 -0.35479,-1.89339 0.4869,-0.30092 1.16801,0.1897 1.51359,1.09026 0.82717,2.15559 0.37536,2.46873 -1.1588,0.80313 z m -78.25996,-2.952 c 1.29175,-1.375 2.57363,-2.5 2.84863,-2.5 0.275,0 -0.55688,1.125 -1.84863,2.5 -1.29174,1.375 -2.57363,2.5 -2.84863,2.5 -0.275,0 0.55689,-1.125 1.84863,-2.5 z m 69.53768,-0.36681 c 0.89897,-1.85175 1.39593,-4.27907 1.10436,-5.39405 -0.37681,-1.44089 -0.22042,-1.71752 0.5407,-0.95641 1.29443,1.29444 0.48748,4.98433 -1.68772,7.71727 -1.40692,1.76767 -1.40197,1.6089 0.0427,-1.36681 z m -26.30568,-3.13319 c 0,-1.925 0.2058,-2.7125 0.45733,-1.75 0.25152,0.9625 0.25152,2.5375 0,3.5 -0.25153,0.9625 -0.45733,0.175 -0.45733,-1.75 z m 68.59251,0.67418 c -0.37206,-1.82482 -0.23269,-2.48236 0.39345,-1.85622 0.53328,0.53328 0.79255,1.8049 0.57615,2.82582 -0.29141,1.37482 -0.54288,1.12336 -0.9696,-0.9696 z m 68.92549,0.62009 c 1.2375,-0.23836 3.2625,-0.23836 4.5,0 1.2375,0.23835 0.225,0.43337 -2.25,0.43337 -2.475,0 -3.4875,-0.19502 -2.25,-0.43337 z m 28.32895,-0.8776 c 0.048,-1.16495 0.28494,-1.4019 0.60417,-0.60417 0.28887,0.72187 0.25334,1.58437 -0.079,1.91667 -0.33229,0.33229 -0.56864,-0.25834 -0.52522,-1.3125 z m -184.32895,-0.1224 c 1.2375,-0.23836 3.2625,-0.23836 4.5,0 1.2375,0.23835 0.225,0.43337 -2.25,0.43337 -2.475,0 -3.4875,-0.19502 -2.25,-0.43337 z m 111,-4.95655 c 0.6875,-0.27741 1.8125,-0.27741 2.5,0 0.6875,0.27741 0.125,0.50439 -1.25,0.50439 -1.375,0 -1.9375,-0.22698 -1.25,-0.50439 z m -118,-1 c 0.6875,-0.27741 1.8125,-0.27741 2.5,0 0.6875,0.27741 0.125,0.50439 -1.25,0.50439 -1.375,0 -1.9375,-0.22698 -1.25,-0.50439 z m 20.0625,-0.0208 c 0.72188,-0.28887 1.58438,-0.25335 1.91667,0.0789 0.33229,0.33229 -0.25834,0.56864 -1.3125,0.52522 -1.16494,-0.048 -1.4019,-0.28494 -0.60417,-0.60416 z m 36.95541,-0.0416 c 1.79735,-0.22256 4.49735,-0.21797 6,0.0102 1.50265,0.22818 0.0321,0.41027 -3.26791,0.40466 -3.3,-0.006 -4.52944,-0.1923 -2.73209,-0.41486 z m 40.48209,-0.0103 c 2.6125,-0.206 6.8875,-0.206 9.5,0 2.6125,0.206 0.475,0.37454 -4.75,0.37454 -5.225,0 -7.3625,-0.16854 -4.75,-0.37454 z m -88.98625,-0.98254 c 1.52006,-0.22986 3.77006,-0.22371 5,0.0136 1.22994,0.23736 -0.0137,0.42542 -2.76375,0.41792 -2.75,-0.008 -3.75631,-0.20172 -2.23625,-0.43157 z m 86.98625,-19.97175 c 0.9625,-0.25152 2.5375,-0.25152 3.5,0 0.9625,0.25153 0.175,0.45733 -1.75,0.45733 -1.925,0 -2.7125,-0.2058 -1.75,-0.45733 z m -78.5,-0.97295 c 0.6875,-0.27741 1.8125,-0.27741 2.5,0 0.6875,0.27741 0.125,0.50439 -1.25,0.50439 -1.375,0 -1.9375,-0.22698 -1.25,-0.50439 z m 15,-0.0435 c 1.2375,-0.23836 3.2625,-0.23836 4.5,0 1.2375,0.23835 0.225,0.43337 -2.25,0.43337 -2.475,0 -3.4875,-0.19502 -2.25,-0.43337 z m 17,0 c 1.2375,-0.23836 3.2625,-0.23836 4.5,0 1.2375,0.23835 0.225,0.43337 -2.25,0.43337 -2.475,0 -3.4875,-0.19502 -2.25,-0.43337 z m 25.51903,0.0127 c 0.97297,-0.25354 2.32297,-0.23687 3,0.037 0.67704,0.27393 -0.11903,0.48137 -1.76903,0.46099 -1.65,-0.0204 -2.20393,-0.2445 -1.23097,-0.49804 z m 37.49263,-0.0143 c 1.24391,-0.23919 3.04391,-0.23011 4,0.0202 0.95609,0.25029 -0.0617,0.446 -2.26166,0.4349 -2.2,-0.0111 -2.98225,-0.21589 -1.73834,-0.45508 z m 15.50209,-0.0103 c 1.52006,-0.22986 3.77006,-0.22371 5,0.0136 1.22994,0.23736 -0.0137,0.42542 -2.76375,0.41792 -2.75,-0.008 -3.75631,-0.20172 -2.23625,-0.43157 z m 44.48625,0.0553 c 0.6875,-0.27741 1.8125,-0.27741 2.5,0 0.6875,0.27741 0.125,0.50439 -1.25,0.50439 -1.375,0 -1.9375,-0.22698 -1.25,-0.50439 z m 12,0 c 0.6875,-0.27741 1.8125,-0.27741 2.5,0 0.6875,0.27741 0.125,0.50439 -1.25,0.50439 -1.375,0 -1.9375,-0.22698 -1.25,-0.50439 z m -84.9375,-4.02083 c 0.72188,-0.28887 1.58438,-0.25335 1.91667,0.0789 0.33229,0.33229 -0.25834,0.56864 -1.3125,0.52522 -1.16494,-0.048 -1.4019,-0.28494 -0.60417,-0.60416 z m 17.56927,-10.81689 c 0.002,-6.6 0.16382,-9.16987 0.35965,-5.71081 0.19583,3.45905 0.19421,8.85905 -0.004,12 -0.19781,3.14094 -0.35803,0.31081 -0.35605,-6.28919 z m 9,0 c 0.002,-6.6 0.16382,-9.16987 0.35965,-5.71081 0.19583,3.45905 0.19421,8.85905 -0.004,12 -0.19781,3.14094 -0.35803,0.31081 -0.35605,-6.28919 z m 52.43073,10.81689 c 0.72188,-0.28887 1.58438,-0.25335 1.91667,0.0789 0.33229,0.33229 -0.25834,0.56864 -1.3125,0.52522 -1.16494,-0.048 -1.4019,-0.28494 -0.60417,-0.60416 z m -147.15273,-1.08545 c 0.63787,-0.40587 1.35795,-2.08648 1.60017,-3.73469 0.39941,-2.71786 0.45434,-2.64776 0.59023,0.75325 0.11855,2.96696 -0.21559,3.7468 -1.60017,3.73469 -1.13607,-0.01 -1.34313,-0.2742 -0.59023,-0.75325 z m 61.21268,-0.98144 c -1.26952,-1.61876 -1.22245,-1.63998 0.62755,-0.28297 1.1,0.80687 2.1875,1.59437 2.41667,1.75 0.22916,0.15563 -0.0532,0.28297 -0.62756,0.28297 -0.57432,0 -1.66182,-0.7875 -2.41666,-1.75 z m 67,-1 c -1.24387,-1.58606 -1.2085,-1.62143 0.37755,-0.37756 1.66575,1.30637 2.19548,2.12756 1.37245,2.12756 -0.20766,0 -0.99516,-0.7875 -1.75,-1.75 z m -51.54431,-6.75 c 0.004,-3.85 0.18518,-5.30246 0.40166,-3.2277 0.21648,2.07477 0.21285,5.22477 -0.008,7 -0.22091,1.77524 -0.39802,0.0777 -0.39359,-3.7723 z m -104.86926,4.43347 c -0.36253,-0.58659 -0.44468,-1.281 -0.18255,-1.54313 0.26213,-0.26213 0.74306,0.21781 1.06875,1.06653 0.67618,1.76211 0.0999,2.07206 -0.8862,0.4766 z m 189.10541,-0.2266 c 0.37554,-0.98622 0.9347,-1.54122 1.24258,-1.23333 0.30789,0.30789 6.4e-4,1.11479 -0.68278,1.79313 -0.98762,0.98026 -1.10248,0.8654 -0.5598,-0.5598 z m 1.63066,-5.20687 c 0.0204,-1.65 0.2445,-2.20394 0.49804,-1.23097 0.25355,0.97297 0.23687,2.32297 -0.0371,3 -0.27392,0.67703 -0.48137,-0.11903 -0.46099,-1.76903 z m -192.116,-0.0833 c 0.048,-1.16495 0.28494,-1.4019 0.60417,-0.60417 0.28887,0.72187 0.25334,1.58437 -0.079,1.91667 -0.33229,0.33229 -0.56864,-0.25834 -0.52522,-1.3125 z m 33.17105,-1.106 c 0.9625,-0.25152 2.5375,-0.25152 3.5,0 0.9625,0.25153 0.175,0.45733 -1.75,0.45733 -1.925,0 -2.7125,-0.2058 -1.75,-0.45733 z m 36.25,-1.31067 c 0.99549,-1.1 2.03498,-2 2.30998,-2 0.275,0 -0.31449,0.9 -1.30998,2 -0.99548,1.1 -2.03497,2 -2.30997,2 -0.275,0 0.31449,-0.9 1.30997,-2 z m 19.78602,-2.5 c 0.007,-2.75 0.20171,-3.75631 0.43156,-2.23625 0.22986,1.52006 0.22371,3.77006 -0.0136,5 -0.23736,1.22994 -0.42542,-0.0137 -0.41791,-2.76375 z m 74.79293,2.91667 c 0.048,-1.16495 0.28494,-1.4019 0.60417,-0.60417 0.28887,0.72187 0.25334,1.58437 -0.079,1.91667 -0.33229,0.33229 -0.56864,-0.25834 -0.52522,-1.3125 z m -11.884,-3.91667 c 0.0204,-1.65 0.2445,-2.20394 0.49804,-1.23097 0.25355,0.97297 0.23687,2.32297 -0.0371,3 -0.27392,0.67703 -0.48137,-0.11903 -0.46099,-1.76903 z m 36.72937,-0.25 -2.42432,-2.75 2.75,2.42431 c 2.57029,2.26589 3.20859,3.07569 2.42432,3.07569 -0.17913,0 -1.41663,-1.2375 -2.75,-2.75 z m -116.84537,-0.83333 c 0.048,-1.16495 0.28494,-1.4019 0.60417,-0.60417 0.28887,0.72187 0.25334,1.58437 -0.079,1.91667 -0.33229,0.33229 -0.56864,-0.25834 -0.52522,-1.3125 z m -14.57895,-2.41667 -4,-0.71619 3.5,-0.12659 c 1.925,-0.0696 4.175,0.30962 5,0.84278 1.63626,1.05743 1.40588,1.05743 -4.5,0 z m 48.57895,-0.58333 c 0.048,-1.16495 0.28494,-1.4019 0.60417,-0.60417 0.28887,0.72187 0.25334,1.58437 -0.079,1.91667 -0.33229,0.33229 -0.56864,-0.25834 -0.52522,-1.3125 z m -87.32895,-0.0789 c 0.6875,-0.27741 1.8125,-0.27741 2.5,0 0.6875,0.27741 0.125,0.50439 -1.25,0.50439 -1.375,0 -1.9375,-0.22698 -1.25,-0.50439 z m 9.0625,-0.0208 c 0.72188,-0.28887 1.58438,-0.25335 1.91667,0.0789 0.33229,0.33229 -0.25834,0.56864 -1.3125,0.52522 -1.16494,-0.048 -1.4019,-0.28494 -0.60417,-0.60416 z m 106.94916,-0.0242 c 1.24391,-0.23919 3.04391,-0.23011 4,0.0202 0.95609,0.25029 -0.0617,0.446 -2.26166,0.4349 -2.2,-0.0111 -2.98225,-0.21589 -1.73834,-0.45508 z m 37.98834,0.045 c 0.6875,-0.27741 1.8125,-0.27741 2.5,0 0.6875,0.27741 0.125,0.50439 -1.25,0.50439 -1.375,0 -1.9375,-0.22698 -1.25,-0.50439 z m 9.0625,-0.0208 c 0.72188,-0.28887 1.58438,-0.25335 1.91667,0.0789 0.33229,0.33229 -0.25834,0.56864 -1.3125,0.52522 -1.16494,-0.048 -1.4019,-0.28494 -0.60417,-0.60416 z m -171.8125,-2.31689 c 0.825,-0.53316 1.95,-0.96937 2.5,-0.96937 0.55,0 0.325,0.43621 -0.5,0.96937 -0.825,0.53316 -1.95,0.96937 -2.5,0.96937 -0.55,0 -0.325,-0.43621 0.5,-0.96937 z m 57,0 c -0.825,-0.53316 -1.05,-0.96937 -0.5,-0.96937 0.55,0 1.675,0.43621 2.5,0.96937 0.825,0.53316 1.05,0.96937 0.5,0.96937 -0.55,0 -1.675,-0.43621 -2.5,-0.96937 z m 124,0 c -0.90129,-0.58246 -1.02463,-0.97549 -0.30902,-0.98469 0.65505,-0.008 1.4691,0.43469 1.80902,0.98469 0.76731,1.24152 0.42112,1.24152 -1.5,0 z m -48.1875,-1.68311 c 0.72188,-0.28887 1.58438,-0.25335 1.91667,0.0789 0.33229,0.33229 -0.25834,0.56864 -1.3125,0.52522 -1.16494,-0.048 -1.4019,-0.28494 -0.60417,-0.60416 z m -124,-1 c 0.72188,-0.28887 1.58438,-0.25335 1.91667,0.0789 0.33229,0.33229 -0.25834,0.56864 -1.3125,0.52522 -1.16494,-0.048 -1.4019,-0.28494 -0.60417,-0.60416 z m 10.45653,-0.01 c 0.97297,-0.25354 2.32297,-0.23687 3,0.037 0.67704,0.27393 -0.11903,0.48137 -1.76903,0.46099 -1.65,-0.0204 -2.20393,-0.2445 -1.23097,-0.49804 z m 98.5074,-0.0405 c 2.35204,-0.21124 5.95204,-0.20827 8,0.007 2.04797,0.21487 0.12357,0.38771 -4.27643,0.38408 -4.4,-0.004 -6.0756,-0.17944 -3.72357,-0.39069 z m 43.97357,0.0712 c 0.6875,-0.27741 1.8125,-0.27741 2.5,0 0.6875,0.27741 0.125,0.50439 -1.25,0.50439 -1.375,0 -1.9375,-0.22698 -1.25,-0.50439 z m 12.0625,-0.0208 c 0.72188,-0.28887 1.58438,-0.25335 1.91667,0.0789 0.33229,0.33229 -0.25834,0.56864 -1.3125,0.52522 -1.16494,-0.048 -1.4019,-0.28494 -0.60417,-0.60416 z M 639.2393,-259.98645 c 0.0111,-2.2 0.21589,-2.98225 0.45508,-1.73834 0.2392,1.24391 0.23011,3.04391 -0.0202,4 -0.25029,0.95609 -0.44599,-0.0617 -0.4349,-2.26166 z m 47.99782,-4.24976 c 25.7125,-0.14851 67.7875,-0.14851 93.5,0 25.7125,0.14851 4.675,0.27002 -46.75,0.27002 -51.425,0 -72.4625,-0.12151 -46.75,-0.27002 z m 71.5,-37.97364 c 1.7875,-0.22182 4.7125,-0.22182 6.5,0 1.7875,0.22183 0.325,0.40333 -3.25,0.40333 -3.575,0 -5.0375,-0.1815 -3.25,-0.40333 z m 27.01791,-10e-4 c 1.79735,-0.22256 4.49735,-0.21797 6,0.0102 1.50265,0.22818 0.0321,0.41027 -3.26791,0.40466 -3.3,-0.006 -4.52944,-0.1923 -2.73209,-0.41486 z m -39.51791,-0.9646 c 0.9625,-0.25152 2.5375,-0.25152 3.5,0 0.9625,0.25153 0.175,0.45733 -1.75,0.45733 -1.925,0 -2.7125,-0.2058 -1.75,-0.45733 z m 52.5,0.027 c 0.6875,-0.27741 1.8125,-0.27741 2.5,0 0.6875,0.27741 0.125,0.50439 -1.25,0.50439 -1.375,0 -1.9375,-0.22698 -1.25,-0.50439 z m -59,-1 c 0.6875,-0.27741 1.8125,-0.27741 2.5,0 0.6875,0.27741 0.125,0.50439 -1.25,0.50439 -1.375,0 -1.9375,-0.22698 -1.25,-0.50439 z m 66.0625,-0.0208 c 0.72188,-0.28887 1.58438,-0.25335 1.91667,0.0789 0.33229,0.33229 -0.25834,0.56864 -1.3125,0.52522 -1.16494,-0.048 -1.4019,-0.28494 -0.60417,-0.60416 z m -71.54347,-1.00988 c 0.97297,-0.25354 2.32297,-0.23687 3,0.0371 0.67704,0.27393 -0.11903,0.48137 -1.76903,0.46099 -1.65,-0.0204 -2.20393,-0.2445 -1.23097,-0.49804 z m 75.54347,0.01 c 0.72188,-0.28887 1.58438,-0.25335 1.91667,0.0789 0.33229,0.33229 -0.25834,0.56864 -1.3125,0.52522 -1.16494,-0.048 -1.4019,-0.28494 -0.60417,-0.60416 z m 15.1875,-6.69445 c 0,-0.20765 0.7875,-0.99515 1.75,-1.75 1.58606,-1.24387 1.62143,-1.2085 0.37756,0.37756 -1.30637,1.66575 -2.12756,2.19548 -2.12756,1.37244 z m -123.5,-1.62244 c -1.31874,-0.56668 -1.48905,-0.87815 -0.5,-0.9144 0.825,-0.0302 2.175,0.38124 3,0.9144 1.82797,1.18132 0.24909,1.18132 -2.5,0 z m -17.5,-7.5 c -1.375,-0.78602 -2.02351,-1.44508 -1.44113,-1.46456 0.58238,-0.0195 1.93238,0.62525 3,1.43276 2.46898,1.86744 1.68039,1.88352 -1.55887,0.0318 z m 88.75,-2.23724 c 2.8875,-0.202 7.6125,-0.202 10.5,0 2.8875,0.202 0.525,0.36728 -5.25,0.36728 -5.775,0 -8.1375,-0.16528 -5.25,-0.36728 z m -11.5,-0.95209 c 0.9625,-0.25152 2.5375,-0.25152 3.5,0 0.9625,0.25153 0.175,0.45733 -1.75,0.45733 -1.925,0 -2.7125,-0.2058 -1.75,-0.45733 z m 33.24884,-0.37669 c 1.64936,-0.49176 3.56186,-1.66409 4.25,-2.60518 0.68814,-0.94108 1.25116,-1.20057 1.25116,-0.57663 0,1.63187 -4.0916,4.26281 -6.4725,4.16188 -1.42945,-0.0606 -1.14294,-0.34969 0.97134,-0.98007 z m -39.74884,-0.59626 c 0.6875,-0.27741 1.8125,-0.27741 2.5,0 0.6875,0.27741 0.125,0.50439 -1.25,0.50439 -1.375,0 -1.9375,-0.22698 -1.25,-0.50439 z m -4.9375,-1.02083 c 0.72188,-0.28887 1.58438,-0.25335 1.91667,0.0789 0.33229,0.33229 -0.25834,0.56864 -1.3125,0.52522 -1.16494,-0.048 -1.4019,-0.28494 -0.60417,-0.60416 z m -5,-1 c 0.72188,-0.28887 1.58438,-0.25335 1.91667,0.0789 0.33229,0.33229 -0.25834,0.56864 -1.3125,0.52522 -1.16494,-0.048 -1.4019,-0.28494 -0.60417,-0.60416 z m -83.94005,-9.06689 c -1.24387,-1.58606 -1.2085,-1.62143 0.37755,-0.37756 0.9625,0.75485 1.75,1.54235 1.75,1.75 0,0.82304 -0.82118,0.29331 -2.12755,-1.37244 z m 138.37973,-1.75 c 0.0111,-2.2 0.21589,-2.98225 0.45508,-1.73834 0.2392,1.24391 0.23011,3.04391 -0.0202,4 -0.25029,0.95609 -0.44599,-0.0617 -0.4349,-2.26166 z m 35.0679,-2.5 c 0,-3.575 0.18149,-5.0375 0.40332,-3.25 0.22182,1.7875 0.22182,4.7125 0,6.5 -0.22183,1.7875 -0.40332,0.325 -0.40332,-3.25 z m -182.44763,-3.75 c -1.24387,-1.58606 -1.2085,-1.62143 0.37755,-0.37756 0.9625,0.75485 1.75,1.54235 1.75,1.75 0,0.82304 -0.82118,0.29331 -2.12755,-1.37244 z m 146.37973,-4.75 c 0.0111,-2.2 0.21589,-2.98225 0.45508,-1.73834 0.2392,1.24391 0.23011,3.04391 -0.0202,4 -0.25029,0.95609 -0.44599,-0.0617 -0.4349,-2.26166 z m 37.0679,-8.5 c 0,-3.575 0.18149,-5.0375 0.40332,-3.25 0.22182,1.7875 0.22182,4.7125 0,6.5 -0.22183,1.7875 -0.40332,0.325 -0.40332,-3.25 z m -143.44763,-0.75 c -1.24387,-1.58606 -1.2085,-1.62143 0.37755,-0.37756 0.9625,0.75485 1.75,1.54235 1.75,1.75 0,0.82304 -0.82118,0.29331 -2.12755,-1.37244 z m 105.35955,-1.25 c 0,-1.925 0.2058,-2.7125 0.45733,-1.75 0.25152,0.9625 0.25152,2.5375 0,3.5 -0.25153,0.9625 -0.45733,0.175 -0.45733,-1.75 z m -162.13161,-4.29548 c -1.26492,-2.10631 -1.24361,-2.12762 0.47833,-0.47833 0.99123,0.94941 1.58698,1.94144 1.3239,2.20452 -0.26308,0.26308 -1.07408,-0.5137 -1.80223,-1.72619 z m 52.3046,0.0455 -1.90499,-2.25 2.25,1.90499 c 2.11445,1.79022 2.70524,2.59501 1.90499,2.59501 -0.18976,0 -1.20226,-1.0125 -2.25,-2.25 z m 108.82701,-6.75 c 0,-1.925 0.2058,-2.7125 0.45733,-1.75 0.25152,0.9625 0.25152,2.5375 0,3.5 -0.25153,0.9625 -0.45733,0.175 -0.45733,-1.75 z m 40.07787,-4.5 c 0.006,-3.3 0.1923,-4.52944 0.41486,-2.73209 0.22256,1.79735 0.21797,4.49735 -0.0102,6 -0.22818,1.50265 -0.41027,0.0321 -0.40466,-3.26791 z m -41.23092,-7.08333 c 0.048,-1.16495 0.28494,-1.4019 0.60417,-0.60417 0.28887,0.72187 0.25334,1.58437 -0.079,1.91667 -0.33229,0.33229 -0.56864,-0.25834 -0.52522,-1.3125 z m 42.23092,-9.91667 c 0.006,-3.3 0.1923,-4.52944 0.41486,-2.73209 0.22256,1.79735 0.21797,4.49735 -0.0102,6 -0.22818,1.50265 -0.41027,0.0321 -0.40466,-3.26791 z m -166.23092,-7.08333 c 0.048,-1.16495 0.28494,-1.4019 0.60417,-0.60417 0.28887,0.72187 0.25334,1.58437 -0.079,1.91667 -0.33229,0.33229 -0.56864,-0.25834 -0.52522,-1.3125 z m -0.92105,-4.41667 c 0,-1.375 0.22697,-1.9375 0.50438,-1.25 0.27741,0.6875 0.27741,1.8125 0,2.5 -0.27741,0.6875 -0.50438,0.125 -0.50438,-1.25 z m -50.96295,-2.5 c 0.0204,-1.65 0.2445,-2.20394 0.49804,-1.23097 0.25355,0.97297 0.23687,2.32297 -0.0371,3 -0.27392,0.67703 -0.48137,-0.11903 -0.46099,-1.76903 z m 219.07742,-3.5 c 0,-2.475 0.19501,-3.4875 0.43336,-2.25 0.23836,1.2375 0.23836,3.2625 0,4.5 -0.23835,1.2375 -0.43336,0.225 -0.43336,-2.25 z m -219.94423,-8.5 c 0.004,-3.85 0.18518,-5.30246 0.40166,-3.2277 0.21648,2.07477 0.21285,5.22477 -0.008,7 -0.22091,1.77524 -0.39802,0.0777 -0.39359,-3.7723 z m 173.97153,-0.5 c 0,-3.025 0.18746,-4.2625 0.41659,-2.75 0.22912,1.5125 0.22912,3.9875 0,5.5 -0.22913,1.5125 -0.41659,0.275 -0.41659,-2.75 z m -124.01365,-8.5 c 0.007,-2.75 0.20171,-3.75631 0.43156,-2.23625 0.22986,1.52006 0.22371,3.77006 -0.0136,5 -0.23736,1.22994 -0.42542,-0.0138 -0.41791,-2.76375 z m 162.58643,0.75 c -1.24387,-1.58606 -1.2085,-1.62143 0.37755,-0.37756 1.66575,1.30637 2.19548,2.12756 1.37245,2.12756 -0.20766,0 -0.99516,-0.7875 -1.75,-1.75 z m -211.6775,-3.75 c 0.0204,-1.65 0.2445,-2.20394 0.49804,-1.23097 0.25355,0.97297 0.23687,2.32297 -0.0371,3 -0.27392,0.67703 -0.48137,-0.11903 -0.46099,-1.76903 z m 189.05505,-3.21625 c 1.5125,-0.22913 3.9875,-0.22913 5.5,0 1.5125,0.22912 0.275,0.41659 -2.75,0.41659 -3.025,0 -4.2625,-0.18747 -2.75,-0.41659 z M 670.14502,-450.486 c 0,-1.375 0.22697,-1.9375 0.50438,-1.25 0.27741,0.6875 0.27741,1.8125 0,2.5 -0.27741,0.6875 -0.50438,0.125 -0.50438,-1.25 z m -36.1579,-20.37756 c 0,-0.20765 0.7875,-0.99515 1.75,-1.75 1.58606,-1.24387 1.62143,-1.2085 0.37756,0.37756 -1.30637,1.66575 -2.12756,2.19548 -2.12756,1.37244 z m 9.5,-12.62244 c 0.99549,-1.1 2.03498,-2 2.30998,-2 0.275,0 -0.31449,0.9 -1.30998,2 -0.99548,1.1 -2.03497,2 -2.30997,2 -0.275,0 0.31449,-0.9 1.30997,-2 z m 43.5,-6.37756 c 0,-0.20765 0.7875,-0.99515 1.75,-1.75 1.58606,-1.24387 1.62143,-1.2085 0.37756,0.37756 -1.30637,1.66575 -2.12756,2.19548 -2.12756,1.37244 z m -23.5,-12.62244 c 0.99549,-1.1 2.03498,-2 2.30998,-2 0.275,0 -0.31449,0.9 -1.30998,2 -0.99548,1.1 -2.03497,2 -2.30997,2 -0.275,0 0.31449,-0.9 1.30997,-2 z m 42.72619,-4.57872 c 0.94941,-0.99123 1.94144,-1.58698 2.20452,-1.3239 0.26309,0.26308 -0.5137,1.07408 -1.72619,1.80223 -2.10631,1.26492 -2.12762,1.24361 -0.47833,-0.47833 z m 42.58631,-15.10439 c 0.72188,-0.28887 1.58438,-0.25335 1.91667,0.0789 0.33229,0.33229 -0.25834,0.56864 -1.3125,0.52522 -1.16494,-0.048 -1.4019,-0.28494 -0.60417,-0.60416 z m 5.4375,-1.00622 c 0.9625,-0.25152 2.5375,-0.25152 3.5,0 0.9625,0.25153 0.175,0.45733 -1.75,0.45733 -1.925,0 -2.7125,-0.2058 -1.75,-0.45733 z m 26.5625,0.006 c 0.72188,-0.28887 1.58438,-0.25335 1.91667,0.0789 0.33229,0.33229 -0.25834,0.56864 -1.3125,0.52522 -1.16494,-0.048 -1.4019,-0.28494 -0.60417,-0.60416 z m -11.5625,-1.03314 c 1.5125,-0.22913 3.9875,-0.22913 5.5,0 1.5125,0.22912 0.275,0.41659 -2.75,0.41659 -3.025,0 -4.2625,-0.18747 -2.75,-0.41659 z m -29.98097,-10.97674 c 0.97297,-0.25354 2.32297,-0.23687 3,0.0371 0.67704,0.27393 -0.11903,0.48137 -1.76903,0.46099 -1.65,-0.0204 -2.20393,-0.2445 -1.23097,-0.49804 z m 44.48097,0.0307 c 0.6875,-0.27741 1.8125,-0.27741 2.5,0 0.6875,0.27741 0.125,0.50439 -1.25,0.50439 -1.375,0 -1.9375,-0.22698 -1.25,-0.50439 z m -36.5,-1.02705 c 0.9625,-0.25152 2.5375,-0.25152 3.5,0 0.9625,0.25153 0.175,0.45733 -1.75,0.45733 -1.925,0 -2.7125,-0.2058 -1.75,-0.45733 z m 27.01375,-0.0282 c 1.52006,-0.22986 3.77006,-0.22371 5,0.0136 1.22994,0.23736 -0.0137,0.42542 -2.76375,0.41792 -2.75,-0.008 -3.75631,-0.20172 -2.23625,-0.43157 z M 659.81555,-598.2361 c 40.88063,-0.14462 107.48063,-0.1446 148,4e-5 40.51936,0.14464 7.07157,0.26296 -74.32843,0.26293 -81.4,-2e-5 -114.55221,-0.11836 -73.67157,-0.26297 z m -5.57843,-8.99999 c 43.3125,-0.14421 114.1875,-0.14421 157.5,0 43.3125,0.14421 7.875,0.2622 -78.75,0.2622 -86.625,0 -122.0625,-0.11799 -78.75,-0.2622 z"
         id="path146" /></g></g></svg>
